<svg id="svg" version="1.1" xmlns="http://www.w3.org/2000/svg" xmlns:xlink="http://www.w3.org/1999/xlink" width="400" height="149.06832298136646" viewBox="0, 0, 400,149.06832298136646"><g id="svgg"><path id="path0" d="M188.832 48.144 C 187.408 48.502,187.436 48.476,186.928 49.874 L 186.489 51.083 186.536 78.083 L 186.583 105.083 187.079 106.061 C 187.351 106.599,187.651 107.057,187.745 107.080 C 187.840 107.102,188.408 107.242,189.009 107.389 C 190.547 107.766,192.658 106.495,192.669 105.184 C 192.712 100.184,193.200 97.071,194.112 95.987 C 194.234 95.842,194.333 95.651,194.333 95.562 C 194.333 95.473,194.858 94.866,195.500 94.213 C 196.142 93.560,196.667 92.954,196.667 92.866 C 196.667 92.698,198.058 91.500,198.254 91.500 C 198.316 91.500,198.745 91.161,199.206 90.746 C 199.704 90.298,200.155 90.023,200.314 90.069 C 200.462 90.112,201.027 90.199,201.570 90.263 C 202.789 90.406,204.968 92.500,206.587 95.083 C 206.760 95.358,207.167 95.893,207.492 96.271 C 207.817 96.649,208.608 97.687,209.250 98.576 C 209.892 99.465,210.510 100.294,210.624 100.417 C 211.136 100.970,214.833 105.844,214.833 105.966 C 214.833 106.379,217.450 107.462,218.667 107.553 C 220.637 107.699,222.278 106.442,221.636 105.278 C 221.516 105.058,221.181 104.437,220.893 103.898 C 220.605 103.358,220.203 102.767,219.999 102.583 C 219.795 102.400,219.399 101.912,219.118 101.500 C 218.838 101.087,218.266 100.337,217.846 99.833 C 217.427 99.328,217.008 98.794,216.917 98.646 C 216.825 98.498,216.418 97.935,216.011 97.397 C 214.313 95.144,213.027 93.375,212.632 92.750 C 212.400 92.383,212.030 91.896,211.808 91.667 C 211.587 91.438,211.108 90.800,210.745 90.250 C 210.381 89.700,210.002 89.175,209.902 89.083 C 209.500 88.712,208.000 86.489,208.000 86.262 C 208.000 86.129,207.935 85.979,207.855 85.930 C 207.776 85.881,207.659 85.250,207.596 84.528 C 207.442 82.761,207.985 81.793,210.485 79.380 C 211.456 78.444,212.302 77.619,212.366 77.547 C 212.951 76.890,217.137 72.521,217.961 71.708 C 218.542 71.136,219.100 70.423,219.202 70.125 C 219.303 69.827,219.599 69.338,219.858 69.037 C 220.748 68.009,219.253 67.083,216.784 67.132 C 214.308 67.181,214.194 67.270,205.384 76.003 C 198.226 83.098,196.559 84.667,196.174 84.667 C 196.061 84.667,195.761 84.814,195.509 84.994 L 195.049 85.321 194.366 84.819 C 193.991 84.543,193.511 84.040,193.300 83.700 L 192.917 83.083 192.833 66.917 L 192.750 50.750 192.270 49.660 C 191.849 48.706,191.703 48.534,191.103 48.290 C 190.038 47.858,189.984 47.854,188.832 48.144 M341.211 48.197 C 340.795 48.496,340.576 48.872,340.247 49.851 L 339.822 51.119 339.869 78.101 L 339.917 105.083 340.266 105.837 C 340.458 106.252,340.870 106.862,341.182 107.193 L 341.750 107.795 342.960 107.657 C 344.319 107.503,344.838 107.213,345.697 106.129 L 346.250 105.431 346.369 94.090 C 346.435 87.853,346.552 82.225,346.629 81.583 C 347.341 75.673,351.846 71.667,357.781 71.667 C 359.670 71.667,362.500 72.262,362.500 72.660 C 362.500 72.726,362.905 72.978,363.400 73.220 C 364.275 73.649,364.782 74.172,365.690 75.583 C 367.784 78.840,367.699 78.150,367.818 92.917 C 367.940 108.050,367.827 107.399,370.364 107.598 C 372.124 107.735,373.604 107.197,374.083 106.246 C 374.582 105.255,374.605 79.797,374.109 77.917 C 373.595 75.972,371.863 72.247,371.083 71.410 C 369.216 69.405,368.636 68.833,368.474 68.833 C 368.373 68.833,367.922 68.569,367.472 68.246 C 366.555 67.587,364.203 66.668,363.426 66.665 C 363.146 66.664,362.542 66.550,362.085 66.411 C 360.939 66.063,358.143 65.924,356.917 66.154 C 353.208 66.849,352.080 67.166,350.366 67.997 C 349.789 68.277,349.259 68.523,349.189 68.545 C 348.910 68.630,347.475 67.562,347.091 66.982 C 346.489 66.073,346.333 63.997,346.333 56.900 L 346.333 50.836 345.828 49.710 C 345.077 48.036,342.579 47.217,341.211 48.197 M153.750 50.109 C 151.014 50.434,149.035 50.936,147.758 51.629 C 147.020 52.029,146.004 52.533,145.500 52.748 C 142.689 53.951,138.567 59.132,137.674 62.583 C 137.242 64.256,137.546 70.516,138.092 71.167 C 138.207 71.304,138.524 71.867,138.795 72.417 C 139.067 72.967,139.494 73.792,139.744 74.250 C 140.261 75.197,142.325 77.196,143.477 77.866 C 145.529 79.057,145.517 79.053,150.083 80.561 C 151.656 81.081,156.239 82.114,157.953 82.335 C 159.438 82.527,163.557 83.888,165.598 84.862 C 166.909 85.487,169.092 88.079,169.505 89.500 C 170.235 92.011,170.039 95.226,169.029 97.333 C 168.749 97.918,166.402 100.500,166.151 100.500 C 166.077 100.500,165.694 100.715,165.300 100.977 C 162.216 103.031,152.508 103.385,148.576 101.587 C 146.477 100.627,144.910 99.332,143.558 97.441 C 143.025 96.694,142.493 95.984,142.378 95.863 C 142.262 95.742,142.130 95.461,142.084 95.238 C 142.038 95.016,141.957 94.627,141.905 94.375 C 141.219 91.045,138.137 89.374,135.685 91.002 C 133.810 92.247,135.707 98.794,138.938 102.232 C 141.103 104.536,144.959 107.167,146.171 107.167 C 146.327 107.167,146.971 107.380,147.602 107.640 C 151.278 109.156,159.677 109.290,163.558 107.896 C 164.213 107.660,165.162 107.334,165.667 107.171 C 167.008 106.736,168.759 105.908,169.139 105.528 C 169.321 105.345,169.725 105.076,170.036 104.928 C 170.346 104.781,170.982 104.305,171.447 103.872 C 171.912 103.438,172.533 102.865,172.827 102.597 C 173.121 102.330,173.484 101.918,173.634 101.681 C 173.784 101.444,174.181 100.875,174.516 100.417 C 175.816 98.638,175.995 98.159,176.504 95.083 C 176.754 93.574,176.674 90.351,176.341 88.500 C 175.870 85.888,175.690 85.415,174.794 84.448 C 174.582 84.220,174.244 83.707,174.042 83.308 C 173.833 82.894,173.248 82.233,172.680 81.767 C 172.132 81.319,171.648 80.859,171.605 80.746 C 171.199 79.688,161.896 76.471,156.917 75.666 C 150.231 74.586,144.351 70.994,144.329 67.978 C 144.327 67.669,144.253 67.105,144.165 66.723 C 143.419 63.492,146.286 58.612,149.667 57.358 C 154.400 55.601,158.410 55.585,163.146 57.302 C 165.646 58.208,168.882 62.022,169.348 64.611 C 170.038 68.450,173.971 69.890,175.682 66.930 C 176.552 65.425,176.064 63.128,174.121 59.583 C 173.970 59.308,173.807 58.888,173.760 58.649 C 173.685 58.275,172.880 57.239,171.443 55.667 C 170.521 54.658,168.791 53.142,168.385 52.988 C 168.141 52.895,167.186 52.391,166.263 51.868 C 165.339 51.345,164.321 50.870,164.000 50.812 C 159.580 50.018,159.420 50.000,156.858 50.025 C 155.424 50.039,154.025 50.077,153.750 50.109 M276.583 55.680 C 276.400 55.777,275.905 56.413,275.483 57.093 L 274.716 58.330 274.598 60.865 C 274.404 65.039,273.468 66.511,270.868 66.733 C 269.823 66.822,269.485 66.939,268.452 67.568 L 267.250 68.298 267.202 69.651 C 267.156 70.929,267.174 71.011,267.536 71.149 C 267.747 71.229,268.301 71.519,268.768 71.795 C 269.330 72.126,269.963 72.335,270.649 72.415 C 272.153 72.589,273.809 73.571,273.828 74.298 C 273.831 74.417,273.999 74.829,274.202 75.215 C 274.568 75.912,274.571 75.989,274.680 87.083 C 274.801 99.264,274.786 99.073,275.833 102.083 C 276.336 103.527,277.058 104.833,277.354 104.833 C 277.432 104.833,277.857 105.193,278.299 105.633 C 280.042 107.367,286.150 108.617,287.417 107.499 C 287.600 107.337,287.908 107.157,288.101 107.099 C 289.069 106.806,289.864 105.743,289.755 104.889 C 289.525 103.087,289.509 103.043,289.038 102.873 C 288.173 102.561,286.745 102.198,285.583 101.996 C 283.719 101.671,282.540 100.760,281.529 98.863 C 280.747 97.396,280.622 95.276,280.696 84.738 L 280.758 75.917 281.151 75.167 C 281.738 74.045,282.132 73.539,282.632 73.261 C 283.939 72.536,284.514 72.351,285.810 72.240 C 286.825 72.153,287.470 71.991,288.187 71.644 C 288.729 71.381,289.283 71.167,289.419 71.167 C 289.620 71.167,289.667 70.883,289.667 69.679 L 289.667 68.191 288.542 67.652 C 287.656 67.229,287.013 67.067,285.521 66.891 C 281.853 66.459,280.892 65.205,280.720 60.628 C 280.572 56.700,280.040 55.843,277.586 55.577 C 277.218 55.537,276.767 55.584,276.583 55.680 M242.833 66.161 C 239.914 66.590,237.892 67.086,236.500 67.717 C 233.546 69.054,229.622 72.398,228.588 74.461 C 228.324 74.987,227.942 75.642,227.739 75.917 C 227.126 76.747,226.315 78.496,226.164 79.314 C 226.086 79.737,225.802 80.841,225.532 81.767 C 224.468 85.418,224.414 88.643,225.356 92.266 C 225.639 93.357,225.970 94.690,226.090 95.227 C 226.408 96.643,226.969 97.956,227.696 98.985 C 228.047 99.482,228.333 99.999,228.333 100.135 C 228.333 101.544,235.329 107.167,237.081 107.167 C 237.201 107.167,237.850 107.403,238.524 107.693 C 241.677 109.046,247.893 109.026,251.028 107.653 C 251.639 107.386,252.248 107.167,252.382 107.167 C 252.768 107.167,255.629 105.673,255.726 105.420 C 255.774 105.295,256.080 105.065,256.407 104.910 C 256.944 104.655,260.167 101.701,260.167 101.464 C 260.167 101.409,260.654 100.635,261.250 99.744 L 262.333 98.123 262.333 96.832 L 262.333 95.540 261.049 95.130 C 258.967 94.465,257.311 95.137,255.824 97.250 C 251.400 103.539,241.052 104.689,235.869 99.468 C 234.123 97.709,233.129 96.313,232.944 95.360 C 232.884 95.053,232.653 94.440,232.431 93.996 C 231.696 92.535,232.445 90.624,234.077 89.797 L 235.071 89.293 247.744 89.337 C 263.684 89.393,262.125 89.447,262.952 88.811 C 264.323 87.758,264.579 85.834,263.804 82.417 C 262.984 78.800,262.251 76.802,261.237 75.417 C 261.035 75.142,260.671 74.518,260.426 74.030 C 259.967 73.111,257.532 70.566,256.144 69.553 C 252.854 67.151,246.727 65.589,242.833 66.161 M310.417 66.250 C 309.775 66.368,308.782 66.549,308.211 66.652 C 306.664 66.931,303.333 68.209,303.333 68.523 C 303.333 68.593,302.995 68.801,302.582 68.983 C 301.078 69.649,297.383 73.251,296.631 74.785 C 296.474 75.106,296.256 75.476,296.147 75.607 C 296.037 75.739,295.783 76.200,295.583 76.632 C 295.382 77.063,295.018 77.708,294.775 78.065 C 294.532 78.421,294.333 78.871,294.332 79.065 C 294.332 79.258,294.219 79.632,294.081 79.896 C 292.151 83.598,292.918 93.166,295.534 98.018 C 296.157 99.174,296.667 100.200,296.667 100.299 C 296.667 100.397,296.886 100.634,297.154 100.825 C 297.423 101.016,298.031 101.660,298.505 102.257 C 298.980 102.853,299.679 103.556,300.059 103.819 C 300.439 104.081,300.957 104.490,301.211 104.726 C 301.465 104.962,302.027 105.361,302.461 105.612 C 302.895 105.862,303.287 106.116,303.333 106.175 C 303.482 106.368,304.200 106.700,305.320 107.095 C 305.923 107.307,307.092 107.728,307.917 108.031 L 309.417 108.580 313.000 108.581 C 316.715 108.581,318.428 108.323,319.550 107.591 C 319.752 107.459,320.262 107.275,320.684 107.181 C 322.619 106.749,327.391 103.160,328.257 101.486 C 328.387 101.235,328.674 100.887,328.896 100.713 C 329.361 100.347,330.667 97.844,330.667 97.318 C 330.667 97.122,330.828 96.675,331.025 96.324 L 331.383 95.687 330.983 94.759 C 330.267 93.098,328.111 92.497,326.542 93.520 C 325.909 93.933,324.068 96.224,323.810 96.919 C 322.461 100.553,318.654 102.560,313.083 102.574 L 309.583 102.583 308.099 101.962 C 306.274 101.199,303.333 98.998,303.333 98.397 C 303.333 98.285,303.271 98.169,303.195 98.139 C 303.118 98.108,302.783 97.655,302.450 97.131 C 302.117 96.607,301.692 96.026,301.506 95.839 C 301.319 95.653,301.167 95.394,301.167 95.264 C 301.167 95.134,301.012 94.667,300.823 94.226 C 298.935 89.821,299.570 81.514,302.042 78.289 C 302.377 77.852,302.887 77.102,303.174 76.623 C 303.462 76.143,304.010 75.509,304.391 75.215 C 304.772 74.920,305.308 74.482,305.583 74.241 C 310.577 69.870,320.799 71.783,323.676 77.628 C 323.978 78.242,324.775 79.395,325.446 80.191 L 326.666 81.637 328.092 81.755 C 329.709 81.890,331.442 81.264,331.397 80.562 C 331.353 79.872,331.014 78.182,330.862 77.892 C 330.773 77.722,330.564 77.150,330.397 76.619 C 330.065 75.563,328.034 72.673,326.739 71.415 C 326.019 70.715,323.613 68.833,323.437 68.833 C 323.389 68.833,323.023 68.613,322.624 68.343 C 321.745 67.750,319.423 66.878,318.167 66.669 C 317.662 66.585,316.575 66.403,315.750 66.264 C 313.958 65.963,312.011 65.957,310.417 66.250 M248.418 72.310 C 250.504 73.014,252.601 74.197,253.522 75.188 C 253.831 75.520,254.424 76.158,254.840 76.604 C 256.034 77.885,257.113 80.574,256.766 81.404 C 255.615 84.159,255.258 84.232,243.224 84.143 L 234.917 84.081 234.147 83.630 C 233.379 83.179,233.081 82.743,232.591 81.354 C 232.402 80.820,232.399 80.646,232.575 80.393 C 232.693 80.223,232.912 79.657,233.063 79.135 C 233.213 78.614,233.430 78.089,233.543 77.968 C 233.657 77.848,234.036 77.394,234.386 76.958 C 237.835 72.667,243.712 70.720,248.418 72.310 " stroke="none" fill="#282828" fill-rule="evenodd"></path><path id="path1" d="M0.000 74.500 L 0.000 149.000 200.000 149.000 L 400.000 149.000 400.000 74.500 L 400.000 0.000 200.000 0.000 L 0.000 0.000 0.000 74.500 M63.731 38.158 L 64.486 38.523 64.161 39.348 C 63.452 41.147,62.940 41.915,61.566 43.243 C 60.796 43.987,60.167 44.676,60.167 44.774 C 60.167 44.871,59.721 45.369,59.177 45.880 C 58.633 46.391,58.078 47.022,57.943 47.282 C 57.808 47.543,57.241 48.154,56.682 48.639 C 56.124 49.125,55.667 49.619,55.667 49.736 C 55.667 49.853,55.423 50.204,55.125 50.516 C 54.827 50.828,54.387 51.346,54.148 51.667 C 53.909 51.988,53.384 52.593,52.981 53.013 C 52.579 53.433,51.741 54.333,51.119 55.013 C 48.679 57.681,47.374 59.073,46.375 60.072 C 45.646 60.801,45.333 61.240,45.333 61.536 C 45.333 61.768,45.221 62.277,45.083 62.667 C 44.946 63.056,44.833 63.401,44.833 63.433 C 44.833 64.330,87.863 64.396,88.417 63.500 C 88.454 63.439,88.267 62.983,87.999 62.486 C 87.732 61.990,87.510 61.427,87.507 61.235 C 87.503 61.044,87.181 60.582,86.792 60.209 C 86.402 59.836,85.408 58.792,84.583 57.890 C 83.758 56.988,82.777 55.950,82.402 55.583 C 82.027 55.217,81.463 54.577,81.149 54.163 C 80.834 53.748,80.203 53.029,79.747 52.565 C 79.290 52.101,78.317 51.071,77.583 50.276 C 76.850 49.482,75.837 48.399,75.333 47.871 C 74.289 46.778,73.833 46.220,73.833 46.035 C 73.833 45.965,73.346 45.424,72.750 44.833 C 72.154 44.243,71.667 43.678,71.667 43.579 C 71.667 43.372,70.749 42.350,70.242 41.991 C 69.660 41.581,69.333 40.955,69.333 40.253 C 69.333 39.884,69.265 39.342,69.181 39.049 C 68.704 37.386,73.003 37.356,84.500 38.940 C 86.196 39.174,88.310 39.425,89.198 39.497 C 90.842 39.632,91.269 39.803,92.250 40.719 C 92.433 40.890,92.902 41.261,93.292 41.543 C 93.681 41.826,94.218 42.438,94.484 42.903 C 94.750 43.369,95.350 44.122,95.817 44.577 C 96.285 45.032,96.667 45.499,96.667 45.614 C 96.667 45.730,97.101 46.333,97.632 46.954 C 98.163 47.575,99.017 48.683,99.531 49.417 C 100.044 50.150,100.623 50.893,100.816 51.067 C 101.009 51.242,101.167 51.453,101.167 51.537 C 101.167 51.665,101.896 52.734,102.166 53.000 C 102.212 53.046,102.547 53.533,102.909 54.083 C 103.272 54.633,103.685 55.200,103.826 55.343 C 103.968 55.486,104.377 56.030,104.736 56.551 C 105.095 57.073,105.451 57.500,105.528 57.500 C 105.604 57.500,105.667 57.583,105.667 57.685 C 105.667 57.872,106.684 59.171,107.537 60.073 C 107.792 60.343,108.000 60.653,108.000 60.764 C 108.000 60.874,108.321 61.328,108.714 61.774 C 110.074 63.315,110.754 65.304,110.373 66.627 C 110.274 66.970,110.113 67.555,110.016 67.927 C 109.904 68.355,109.501 68.977,108.919 69.620 C 108.414 70.179,107.999 70.699,107.999 70.776 C 107.998 70.853,107.417 71.558,106.707 72.343 C 105.997 73.127,105.080 74.196,104.668 74.718 C 104.257 75.240,103.844 75.669,103.752 75.673 C 103.659 75.676,103.383 75.995,103.138 76.381 C 102.673 77.115,101.860 78.070,100.358 79.647 C 99.867 80.162,99.254 80.889,98.995 81.263 C 98.736 81.637,98.257 82.145,97.932 82.394 C 97.607 82.642,97.152 83.167,96.921 83.560 C 96.691 83.954,96.202 84.517,95.834 84.812 C 95.467 85.107,94.913 85.745,94.603 86.230 C 94.293 86.715,93.843 87.266,93.604 87.454 C 93.364 87.643,92.774 88.290,92.292 88.891 C 90.337 91.335,89.703 92.084,88.698 93.142 C 88.119 93.752,87.531 94.490,87.391 94.783 C 87.252 95.076,86.875 95.563,86.554 95.866 C 86.234 96.169,85.750 96.712,85.480 97.074 C 84.817 97.962,81.166 102.147,80.924 102.297 C 80.818 102.363,80.304 102.957,79.781 103.617 C 79.259 104.278,78.736 104.878,78.618 104.951 C 78.501 105.024,78.108 105.458,77.746 105.917 C 77.383 106.375,76.786 107.057,76.418 107.433 C 76.051 107.808,75.150 108.814,74.417 109.668 C 73.683 110.522,72.803 111.527,72.460 111.902 C 72.118 112.277,71.837 112.646,71.835 112.723 C 71.834 112.800,71.308 113.385,70.667 114.023 C 70.025 114.660,69.388 115.399,69.251 115.664 C 69.022 116.108,66.850 117.000,65.998 117.000 C 65.639 117.000,64.283 115.873,63.083 114.577 C 62.442 113.884,61.429 112.811,60.833 112.193 C 60.237 111.574,59.487 110.718,59.167 110.291 C 58.846 109.863,58.503 109.510,58.405 109.506 C 58.307 109.503,57.835 108.975,57.357 108.333 C 56.878 107.692,56.417 107.167,56.332 107.167 C 56.247 107.167,55.859 106.735,55.470 106.208 C 55.081 105.681,54.479 104.954,54.132 104.591 C 53.784 104.229,53.500 103.863,53.500 103.778 C 53.500 103.694,53.069 103.195,52.542 102.671 C 51.073 101.209,49.303 99.236,49.011 98.736 C 48.868 98.489,48.393 97.949,47.957 97.536 C 47.521 97.123,47.001 96.515,46.802 96.184 C 46.603 95.854,45.966 95.101,45.387 94.511 C 44.807 93.921,44.333 93.351,44.333 93.244 C 44.333 93.136,43.917 92.654,43.407 92.172 C 42.898 91.691,42.293 90.998,42.063 90.634 C 41.832 90.269,41.283 89.621,40.841 89.194 C 40.399 88.766,39.922 88.192,39.781 87.917 C 39.640 87.642,39.070 86.929,38.515 86.333 C 37.960 85.737,37.504 85.154,37.503 85.036 C 37.501 84.919,37.394 84.782,37.264 84.732 C 37.134 84.683,36.816 84.331,36.556 83.951 C 36.296 83.571,35.833 83.039,35.528 82.768 C 35.223 82.497,34.673 81.833,34.306 81.294 C 33.940 80.754,33.534 80.272,33.403 80.222 C 33.273 80.172,32.868 79.745,32.503 79.274 C 32.137 78.802,31.392 77.929,30.847 77.333 C 29.268 75.609,27.810 73.964,27.000 72.995 C 26.587 72.501,25.896 71.701,25.463 71.218 C 25.030 70.735,24.467 70.020,24.213 69.630 C 23.958 69.240,23.641 68.791,23.508 68.631 C 22.739 67.710,22.312 66.006,22.585 64.943 C 22.943 63.547,24.254 61.454,25.703 59.967 C 26.043 59.618,26.627 58.901,27.000 58.374 C 27.728 57.347,28.069 56.883,29.505 54.975 C 30.012 54.301,30.595 53.525,30.800 53.250 C 31.005 52.975,31.584 52.210,32.086 51.551 C 32.589 50.891,33.000 50.303,33.000 50.244 C 33.000 50.185,33.376 49.715,33.836 49.199 C 34.296 48.683,34.827 47.940,35.017 47.548 C 35.207 47.156,35.572 46.666,35.828 46.459 C 36.083 46.252,36.715 45.437,37.230 44.647 C 37.746 43.857,38.543 42.860,39.001 42.432 C 39.459 42.004,39.833 41.596,39.833 41.526 C 39.833 40.833,42.496 39.505,43.904 39.495 C 44.277 39.493,45.633 39.343,46.917 39.163 C 49.080 38.859,54.391 38.225,57.917 37.850 C 60.346 37.591,62.833 37.723,63.731 38.158 M191.833 46.238 C 193.043 46.463,193.438 46.638,193.909 47.158 C 194.743 48.080,194.720 47.638,194.837 64.917 C 194.897 73.808,194.958 81.083,194.973 81.083 C 196.854 81.083,197.682 80.948,197.859 80.612 C 197.964 80.413,198.099 80.212,198.159 80.167 C 198.219 80.121,198.473 79.810,198.724 79.476 C 198.974 79.142,199.390 78.781,199.647 78.675 C 199.904 78.568,200.424 78.042,200.803 77.504 C 201.182 76.967,201.804 76.315,202.184 76.055 C 202.564 75.796,203.040 75.283,203.240 74.917 C 203.443 74.545,203.967 74.004,204.424 73.695 C 204.929 73.353,205.405 72.846,205.664 72.371 C 205.971 71.808,206.290 71.500,206.856 71.219 C 207.437 70.932,207.692 70.681,207.880 70.210 C 208.160 69.512,208.542 69.114,209.353 68.679 C 209.654 68.518,209.978 68.243,210.075 68.069 C 210.566 67.180,210.900 66.831,211.574 66.505 C 211.980 66.308,212.598 65.917,212.948 65.635 C 214.966 64.007,220.348 63.766,222.510 65.206 C 223.442 65.827,224.216 68.206,223.698 68.859 C 223.601 68.983,223.228 69.421,222.869 69.833 C 222.511 70.246,222.014 70.935,221.765 71.366 C 221.477 71.864,220.982 72.367,220.404 72.751 C 219.846 73.122,219.410 73.560,219.273 73.888 C 219.046 74.431,218.220 75.164,217.433 75.523 C 217.195 75.631,217.000 75.849,217.000 76.007 C 217.000 76.396,215.774 77.633,215.260 77.762 C 215.032 77.820,214.796 78.022,214.736 78.212 C 214.577 78.713,213.170 80.167,212.844 80.167 C 212.688 80.167,212.292 80.598,211.937 81.156 C 211.590 81.701,211.136 82.258,210.927 82.395 C 210.027 82.984,209.968 83.129,210.091 84.438 C 210.200 85.606,210.240 85.696,210.978 86.455 C 211.402 86.892,211.928 87.636,212.145 88.107 C 212.371 88.596,212.709 89.042,212.932 89.143 C 213.148 89.242,213.555 89.731,213.837 90.231 C 214.119 90.731,214.459 91.230,214.592 91.340 C 214.725 91.451,214.833 91.619,214.833 91.714 C 214.833 91.810,215.276 92.386,215.818 92.996 C 216.359 93.605,216.924 94.395,217.073 94.752 C 217.222 95.108,217.749 95.779,218.244 96.242 C 218.761 96.725,219.196 97.296,219.267 97.583 C 219.335 97.858,219.815 98.508,220.334 99.027 C 220.853 99.546,221.388 100.184,221.522 100.444 C 222.056 101.474,222.404 101.944,222.926 102.338 C 223.752 102.963,224.770 105.384,224.877 106.979 L 224.958 108.207 224.322 108.825 C 223.461 109.661,222.351 109.917,219.583 109.917 C 215.473 109.917,214.459 109.417,212.058 106.208 C 211.560 105.544,211.089 105.000,211.010 105.000 C 210.809 105.000,210.167 103.875,210.167 103.523 C 210.167 103.362,209.829 102.993,209.416 102.702 C 208.663 102.171,208.003 101.300,208.000 100.833 C 207.999 100.696,207.698 100.328,207.331 100.016 C 206.963 99.705,206.499 99.180,206.298 98.850 C 206.098 98.520,205.884 98.212,205.823 98.167 C 205.762 98.121,205.658 97.911,205.592 97.699 C 205.526 97.488,205.038 96.851,204.508 96.283 C 203.978 95.715,203.351 94.867,203.115 94.399 C 202.663 93.503,202.430 93.353,200.959 93.012 C 200.041 92.799,199.797 92.902,199.167 93.771 C 198.938 94.087,198.447 94.528,198.076 94.752 C 197.382 95.170,196.667 95.990,196.666 96.368 C 196.665 96.635,196.154 97.465,195.701 97.936 C 195.133 98.527,194.979 99.435,194.831 103.083 C 194.586 109.141,193.991 109.911,189.583 109.885 C 186.376 109.866,185.235 109.154,184.154 106.500 C 183.843 105.735,183.698 52.279,184.001 50.083 C 184.393 47.248,187.150 45.425,190.250 45.952 C 190.525 45.998,191.237 46.127,191.833 46.238 M345.379 46.202 C 348.317 46.776,348.393 47.022,348.518 56.333 C 348.579 60.899,348.693 64.215,348.803 64.667 C 348.903 65.079,348.989 65.470,348.993 65.536 C 348.997 65.602,349.244 65.516,349.542 65.346 C 353.394 63.142,364.988 63.206,367.309 65.444 C 367.552 65.678,368.215 66.091,368.783 66.363 C 369.402 66.659,370.036 67.123,370.366 67.522 C 370.669 67.888,371.310 68.569,371.791 69.035 C 372.745 69.959,373.833 71.737,373.833 72.371 C 373.833 72.596,374.047 72.976,374.321 73.238 C 375.950 74.799,376.036 75.689,376.117 91.923 C 376.192 107.101,376.169 107.561,375.245 108.771 C 373.989 110.419,368.041 110.448,367.210 108.811 C 366.204 106.829,366.034 104.587,366.016 93.045 C 366.000 83.100,365.923 81.666,365.327 80.167 C 365.163 79.754,364.978 79.117,364.916 78.750 C 364.854 78.383,364.660 77.765,364.485 77.377 C 364.310 76.988,364.167 76.628,364.167 76.577 C 364.167 76.409,363.255 75.677,363.038 75.672 C 362.922 75.669,362.547 75.494,362.205 75.283 C 360.180 74.035,355.527 74.031,353.186 75.275 C 352.782 75.491,352.270 75.667,352.049 75.667 C 351.725 75.667,351.573 75.836,351.258 76.548 C 351.044 77.033,350.737 77.539,350.576 77.673 C 348.657 79.265,348.652 79.309,348.522 94.083 C 348.400 108.073,348.434 107.703,347.159 108.924 C 345.664 110.356,340.798 110.317,339.278 108.862 C 337.534 107.193,337.639 109.299,337.698 77.083 L 337.750 48.917 338.191 48.167 C 338.679 47.337,339.814 46.337,340.282 46.326 C 340.448 46.322,340.808 46.212,341.083 46.081 C 341.669 45.803,343.616 45.858,345.379 46.202 M159.263 47.664 C 159.913 47.748,160.925 47.963,161.513 48.141 C 162.102 48.320,163.371 48.627,164.333 48.825 C 166.067 49.180,167.799 49.912,168.917 50.761 C 169.192 50.970,169.803 51.334,170.275 51.570 C 171.328 52.098,174.084 54.789,174.741 55.931 C 175.000 56.381,175.427 56.952,175.689 57.199 C 175.952 57.446,176.167 57.729,176.167 57.829 C 176.167 57.928,176.383 58.439,176.648 58.963 C 176.913 59.488,177.251 60.329,177.400 60.833 C 177.549 61.337,177.814 62.125,177.989 62.583 C 178.449 63.791,178.722 65.943,178.507 66.666 C 178.411 66.986,178.333 67.511,178.333 67.832 C 178.333 69.169,176.140 70.714,173.977 70.901 C 170.796 71.175,168.880 70.150,168.093 67.750 C 167.942 67.292,167.642 66.542,167.425 66.083 C 167.208 65.625,166.901 64.837,166.742 64.333 C 166.583 63.829,166.201 62.994,165.893 62.478 C 165.585 61.962,165.333 61.483,165.333 61.413 C 165.333 61.120,163.670 60.147,162.333 59.659 C 161.921 59.508,161.133 59.167,160.583 58.901 C 159.596 58.423,159.546 58.417,156.667 58.417 L 153.750 58.417 152.133 59.125 C 151.244 59.515,150.437 59.833,150.339 59.833 C 149.912 59.833,148.369 61.065,147.862 61.811 C 146.063 64.460,146.243 67.551,148.319 69.673 L 149.583 70.964 153.083 72.120 C 155.008 72.756,157.108 73.371,157.750 73.488 C 161.824 74.227,164.352 74.842,165.333 75.330 C 165.654 75.490,166.663 75.867,167.575 76.169 C 169.151 76.689,170.856 77.539,171.583 78.167 C 171.767 78.325,172.292 78.667,172.750 78.925 C 173.501 79.349,173.976 79.768,175.116 81.016 C 175.318 81.236,175.720 81.636,176.009 81.903 C 176.299 82.171,176.850 83.033,177.233 83.820 C 177.616 84.606,178.012 85.400,178.113 85.583 C 179.525 88.156,179.823 93.543,178.750 97.083 C 178.014 99.510,176.098 103.000,175.502 103.000 C 175.437 103.000,175.150 103.374,174.866 103.832 C 174.579 104.293,174.028 104.869,173.630 105.124 C 173.234 105.377,172.584 105.940,172.184 106.375 C 171.785 106.810,171.357 107.167,171.234 107.167 C 170.884 107.167,169.124 107.983,168.752 108.318 C 167.769 109.201,165.534 109.905,162.333 110.338 C 161.554 110.444,160.129 110.683,159.167 110.869 C 157.117 111.266,153.731 111.223,151.750 110.775 C 151.108 110.630,149.683 110.356,148.583 110.166 C 145.225 109.587,144.582 109.407,143.746 108.811 C 143.313 108.502,142.308 107.912,141.513 107.500 C 140.571 107.012,139.815 106.474,139.346 105.959 C 138.950 105.525,138.392 105.019,138.105 104.837 C 137.818 104.654,137.396 104.234,137.167 103.904 C 136.938 103.574,136.556 103.067,136.319 102.777 C 136.083 102.487,135.710 101.912,135.492 101.500 C 135.273 101.087,134.957 100.591,134.788 100.396 C 133.523 98.936,132.519 91.825,133.327 90.046 C 134.617 87.204,140.948 87.206,142.475 90.048 C 142.718 90.500,143.087 91.082,143.296 91.339 C 143.651 91.779,145.000 95.138,145.000 95.585 C 145.000 95.697,145.293 95.983,145.650 96.219 C 146.008 96.456,146.539 96.981,146.830 97.387 C 147.121 97.792,147.522 98.204,147.721 98.302 C 153.934 101.345,157.493 101.472,163.917 98.881 C 165.439 98.267,165.531 98.203,165.998 97.417 C 166.216 97.050,166.579 96.526,166.804 96.251 C 168.005 94.787,168.404 91.225,167.480 90.210 C 167.250 89.957,166.879 89.391,166.656 88.953 C 166.113 87.887,165.421 87.256,164.432 86.926 C 163.982 86.775,163.344 86.444,163.015 86.189 C 162.279 85.619,158.692 84.667,157.280 84.667 C 156.566 84.667,153.651 83.921,152.963 83.562 C 152.433 83.285,149.930 82.668,147.940 82.323 C 146.933 82.148,146.114 81.786,144.463 80.788 C 143.939 80.470,143.214 80.164,142.854 80.106 C 142.362 80.027,141.954 79.769,141.224 79.072 C 140.688 78.561,140.053 78.038,139.812 77.911 C 139.311 77.646,138.548 76.788,138.271 76.179 C 138.168 75.952,137.927 75.609,137.736 75.418 C 136.211 73.892,134.920 68.110,135.360 64.777 C 135.978 60.094,136.348 58.876,137.717 57.023 C 138.148 56.440,138.500 55.908,138.500 55.841 C 138.500 55.612,139.505 54.537,141.209 52.942 C 143.522 50.777,148.436 48.500,150.794 48.500 C 150.976 48.500,151.453 48.384,151.854 48.242 C 153.714 47.584,156.800 47.343,159.263 47.664 M279.996 53.707 C 281.140 54.056,282.771 55.371,282.900 56.047 C 283.196 57.599,283.333 58.792,283.333 59.808 C 283.333 63.532,283.785 64.155,286.616 64.339 C 290.659 64.603,291.750 65.716,291.750 69.583 C 291.750 73.515,290.924 74.344,286.455 74.895 C 283.184 75.298,283.333 74.727,283.333 86.913 C 283.333 99.297,283.163 98.839,288.112 99.749 C 290.895 100.260,291.944 101.737,291.782 104.917 C 291.641 107.692,290.857 109.123,289.218 109.600 C 285.922 110.558,279.348 109.891,278.177 108.479 C 278.034 108.306,277.432 107.847,276.840 107.458 C 276.067 106.950,275.627 106.514,275.283 105.917 C 275.019 105.458,274.629 104.896,274.416 104.667 C 273.982 104.199,273.276 102.549,272.918 101.167 C 272.478 99.465,272.333 95.988,272.333 87.084 C 272.333 82.207,272.285 77.662,272.227 76.983 L 272.120 75.750 270.685 75.291 C 269.896 75.038,268.744 74.710,268.126 74.562 C 263.027 73.342,263.998 64.413,269.239 64.325 C 271.555 64.286,272.155 63.457,272.349 60.024 C 272.429 58.590,272.568 57.079,272.657 56.667 C 272.746 56.254,272.822 55.870,272.826 55.813 C 272.840 55.615,274.059 54.314,274.403 54.129 C 275.695 53.436,278.433 53.230,279.996 53.707 M249.833 64.070 C 252.183 64.537,252.653 64.692,253.639 65.319 C 254.158 65.650,254.996 66.102,255.500 66.323 C 256.739 66.868,257.938 67.671,258.181 68.117 C 258.292 68.320,258.633 68.604,258.940 68.750 C 259.538 69.034,261.482 71.318,262.016 72.365 C 262.193 72.711,262.528 73.120,262.761 73.272 C 263.322 73.640,263.598 74.209,264.196 76.229 C 264.471 77.157,264.951 78.485,265.261 79.180 C 266.436 81.806,266.762 87.862,265.817 89.500 C 264.315 92.104,263.955 93.117,264.342 93.651 C 265.634 95.434,264.510 99.829,262.050 102.611 C 261.793 102.901,261.396 103.454,261.167 103.840 C 260.938 104.225,260.563 104.657,260.333 104.799 C 260.104 104.941,259.458 105.532,258.897 106.112 C 258.336 106.692,257.790 107.167,257.683 107.167 C 257.378 107.167,255.828 107.992,255.436 108.362 C 254.251 109.484,248.455 110.833,244.821 110.833 C 241.711 110.833,235.959 109.676,234.735 108.804 C 233.800 108.138,232.899 107.584,232.333 107.327 C 232.104 107.223,231.735 107.050,231.513 106.944 C 231.292 106.837,230.874 106.412,230.584 106.000 C 230.275 105.559,229.851 105.181,229.555 105.083 C 228.826 104.842,228.586 104.595,228.087 103.576 C 227.842 103.076,227.575 102.667,227.494 102.667 C 227.279 102.667,226.167 101.662,226.167 101.468 C 226.167 101.378,225.904 100.772,225.583 100.121 C 225.262 99.470,225.000 98.850,225.000 98.744 C 225.000 98.638,224.860 98.425,224.690 98.271 C 222.570 96.352,221.815 84.482,223.501 79.580 C 223.684 79.049,223.833 78.510,223.833 78.383 C 223.833 78.255,224.081 77.761,224.384 77.284 C 224.687 76.807,225.229 75.779,225.587 75.000 C 225.946 74.221,226.454 73.358,226.717 73.083 C 226.980 72.808,227.603 72.007,228.101 71.303 C 228.599 70.599,229.399 69.717,229.878 69.342 C 230.358 68.968,230.938 68.484,231.167 68.266 C 231.775 67.688,233.146 66.667,233.314 66.667 C 233.513 66.667,235.064 65.977,235.167 65.843 C 235.599 65.276,237.511 64.449,238.833 64.258 C 239.246 64.199,240.146 64.045,240.833 63.917 C 242.557 63.595,247.904 63.686,249.833 64.070 M318.667 64.137 C 320.843 64.557,320.954 64.600,322.784 65.737 C 323.606 66.249,324.385 66.667,324.515 66.667 C 324.965 66.668,325.824 67.326,326.244 67.991 C 326.509 68.410,326.838 68.701,327.125 68.769 C 327.760 68.920,328.127 69.274,328.703 70.292 C 328.975 70.773,329.296 71.167,329.415 71.167 C 329.688 71.167,330.667 72.266,330.667 72.572 C 330.667 72.697,330.892 73.227,331.167 73.750 C 331.442 74.273,331.667 74.791,331.667 74.902 C 331.667 75.013,331.886 75.315,332.155 75.572 C 332.836 76.225,333.212 77.333,333.494 79.518 C 334.036 83.734,329.468 85.956,325.609 83.353 C 324.981 82.930,324.345 82.508,324.196 82.417 C 323.632 82.071,322.633 80.473,322.061 79.002 C 321.782 78.285,321.567 78.010,321.062 77.728 C 320.464 77.393,319.333 76.139,319.333 75.811 C 319.333 75.731,319.149 75.667,318.923 75.667 C 318.697 75.667,318.134 75.518,317.672 75.335 C 314.924 74.252,310.902 74.225,308.521 75.273 C 308.028 75.489,307.453 75.667,307.243 75.667 C 306.987 75.667,306.743 75.856,306.507 76.238 C 306.058 76.966,305.075 77.833,304.700 77.833 C 304.496 77.833,304.147 78.399,303.498 79.782 C 302.995 80.853,302.405 81.944,302.187 82.206 C 301.093 83.520,301.103 90.772,302.201 92.386 C 302.399 92.678,302.696 93.117,302.860 93.363 C 303.024 93.608,303.320 94.275,303.517 94.843 C 303.921 96.010,304.180 96.372,304.962 96.859 C 305.263 97.046,305.616 97.408,305.748 97.664 C 305.904 97.965,306.387 98.328,307.119 98.694 C 307.741 99.006,308.550 99.419,308.917 99.613 C 312.477 101.492,317.653 100.405,320.848 97.106 C 321.570 96.360,322.162 95.662,322.164 95.555 C 322.168 95.251,322.836 93.768,323.019 93.655 C 323.110 93.599,323.424 93.195,323.717 92.758 C 324.243 91.973,324.440 91.827,325.750 91.245 C 327.265 90.572,331.144 90.677,332.333 91.423 C 333.820 92.357,333.826 97.089,332.342 99.083 C 331.848 99.747,330.667 102.035,330.667 102.328 C 330.667 102.412,330.457 102.605,330.201 102.756 C 329.944 102.908,329.554 103.306,329.332 103.641 C 328.942 104.231,326.023 107.167,325.826 107.167 C 325.569 107.167,323.901 108.065,323.785 108.265 C 323.338 109.042,320.474 109.988,317.500 110.342 C 316.629 110.445,315.557 110.598,315.117 110.682 C 314.083 110.878,312.133 110.876,310.986 110.677 C 310.490 110.591,309.472 110.439,308.725 110.338 C 305.820 109.946,303.816 109.317,303.010 108.546 C 302.775 108.322,302.021 107.867,301.333 107.536 C 300.136 106.960,299.054 106.078,297.434 104.357 C 297.058 103.957,296.403 103.282,295.978 102.857 C 295.553 102.431,295.044 101.761,294.846 101.368 C 294.648 100.975,294.203 100.370,293.858 100.025 C 293.183 99.349,292.268 96.991,292.057 95.379 C 292.000 94.941,291.818 94.314,291.653 93.986 C 290.272 91.224,290.124 84.963,291.361 81.583 C 291.629 80.850,291.952 79.788,292.079 79.224 C 292.514 77.288,293.335 75.332,293.987 74.679 C 294.157 74.509,294.568 73.885,294.899 73.293 C 295.230 72.700,295.895 71.842,296.376 71.387 C 296.857 70.932,297.454 70.255,297.704 69.884 C 297.954 69.513,298.429 69.080,298.761 68.923 C 299.092 68.766,299.806 68.194,300.348 67.652 C 300.937 67.063,301.484 66.661,301.708 66.653 C 302.072 66.640,302.282 66.532,304.190 65.376 C 305.512 64.575,306.910 64.182,309.917 63.765 C 311.315 63.572,316.989 63.813,318.667 64.137 M242.750 74.664 C 241.803 74.822,240.386 75.202,239.444 75.548 C 238.813 75.781,236.000 78.245,236.000 78.566 C 236.000 78.742,235.230 79.928,234.867 80.312 C 233.821 81.415,234.939 81.573,244.207 81.631 L 252.330 81.681 253.418 81.202 L 254.505 80.723 254.152 80.404 C 253.687 79.983,253.333 79.281,253.333 78.780 C 253.333 78.401,252.521 77.501,251.570 76.829 C 251.379 76.694,251.095 76.385,250.938 76.143 C 250.781 75.901,250.487 75.665,250.284 75.618 C 250.082 75.572,249.279 75.339,248.500 75.101 C 246.935 74.622,244.227 74.416,242.750 74.664 M235.656 92.195 C 234.620 92.417,234.270 92.961,234.611 93.818 C 235.118 95.092,235.552 95.809,236.029 96.162 C 236.302 96.364,236.735 96.860,236.992 97.263 C 237.472 98.021,238.738 98.781,241.000 99.668 C 241.504 99.866,241.998 100.096,242.098 100.179 C 243.281 101.161,247.807 100.353,250.711 98.641 C 251.153 98.380,251.582 98.167,251.664 98.167 C 251.747 98.167,252.172 97.698,252.610 97.125 C 253.047 96.552,253.465 96.058,253.538 96.027 C 253.611 95.996,253.906 95.629,254.193 95.212 C 254.481 94.794,255.007 94.170,255.362 93.825 L 256.008 93.197 255.568 92.851 C 254.641 92.122,254.333 92.099,245.167 92.065 C 239.970 92.046,236.108 92.099,235.656 92.195 " stroke="none" fill="#fbfbfb" fill-rule="evenodd"></path><path id="path2" d="M57.917 37.850 C 54.391 38.225,49.080 38.859,46.917 39.163 C 45.633 39.343,44.277 39.493,43.904 39.495 C 42.496 39.505,39.833 40.833,39.833 41.526 C 39.833 41.596,39.459 42.004,39.001 42.432 C 38.543 42.860,37.746 43.857,37.230 44.647 C 36.715 45.437,36.083 46.252,35.828 46.459 C 35.572 46.666,35.207 47.156,35.017 47.548 C 34.827 47.940,34.296 48.683,33.836 49.199 C 33.376 49.715,33.000 50.185,33.000 50.244 C 33.000 50.303,32.589 50.891,32.086 51.551 C 31.584 52.210,31.005 52.975,30.800 53.250 C 30.595 53.525,30.012 54.301,29.505 54.975 C 27.993 56.984,27.789 57.262,26.863 58.561 C 26.376 59.246,25.870 59.847,25.740 59.897 C 25.610 59.947,25.226 60.422,24.887 60.952 C 24.549 61.483,24.173 62.016,24.052 62.137 C 23.932 62.258,23.833 62.440,23.833 62.540 C 23.833 62.641,23.720 62.849,23.581 63.003 C 23.317 63.295,22.862 64.832,22.807 65.622 C 22.760 66.287,23.904 68.384,25.057 69.750 C 25.600 70.392,26.500 71.460,27.059 72.125 C 27.619 72.790,28.134 73.333,28.205 73.333 C 28.275 73.333,28.333 73.403,28.333 73.489 C 28.333 73.574,28.753 74.080,29.266 74.614 C 29.779 75.147,30.396 75.846,30.637 76.167 C 30.878 76.487,31.471 77.157,31.954 77.654 C 32.438 78.151,32.833 78.622,32.833 78.699 C 32.833 78.777,33.358 79.357,34.000 79.989 C 34.642 80.620,35.167 81.249,35.167 81.386 C 35.167 81.523,35.538 81.946,35.992 82.326 C 36.445 82.706,36.983 83.295,37.186 83.634 C 37.389 83.973,37.826 84.518,38.158 84.846 C 38.489 85.174,39.181 85.999,39.696 86.679 C 40.210 87.360,40.939 88.248,41.316 88.653 C 41.692 89.058,42.000 89.419,42.000 89.456 C 42.000 89.582,43.538 91.417,43.744 91.536 C 43.858 91.602,44.269 92.068,44.657 92.571 C 45.045 93.074,45.675 93.823,46.056 94.237 C 46.916 95.168,48.463 96.949,50.122 98.917 C 50.817 99.742,51.431 100.454,51.485 100.500 C 51.732 100.707,54.144 103.493,54.659 104.167 C 54.975 104.579,55.330 104.977,55.450 105.050 C 55.569 105.123,55.667 105.274,55.667 105.386 C 55.667 105.497,56.119 106.037,56.673 106.586 C 57.226 107.134,57.782 107.771,57.909 108.000 C 58.035 108.229,58.486 108.754,58.909 109.167 C 59.333 109.579,59.867 110.229,60.097 110.611 C 60.327 110.993,60.781 111.508,61.106 111.756 C 61.430 112.003,61.946 112.597,62.252 113.076 C 62.558 113.554,63.001 114.072,63.236 114.225 C 63.471 114.379,63.972 114.896,64.350 115.374 C 65.338 116.624,65.770 116.853,66.596 116.566 C 66.956 116.441,67.395 116.337,67.573 116.336 C 68.028 116.332,68.916 115.688,69.254 115.116 C 69.411 114.850,70.018 114.084,70.603 113.413 C 71.188 112.742,71.667 112.143,71.667 112.082 C 71.667 112.020,71.849 111.771,72.072 111.527 C 72.295 111.283,72.727 110.770,73.031 110.387 C 74.704 108.279,75.299 107.558,75.750 107.089 C 76.025 106.804,76.850 105.866,77.583 105.007 C 78.317 104.147,79.704 102.568,80.667 101.499 C 81.629 100.429,83.017 98.855,83.750 98.002 C 84.483 97.149,85.410 96.076,85.809 95.617 C 86.208 95.158,86.932 94.250,87.416 93.600 C 87.901 92.949,88.643 92.091,89.066 91.693 C 89.488 91.295,89.833 90.881,89.833 90.772 C 89.833 90.663,90.321 90.091,90.917 89.500 C 91.513 88.909,92.000 88.333,92.000 88.219 C 92.000 88.105,92.525 87.471,93.167 86.810 C 93.808 86.149,94.333 85.538,94.333 85.451 C 94.333 85.365,94.858 84.782,95.500 84.155 C 96.142 83.529,96.667 82.932,96.667 82.830 C 96.667 82.728,96.910 82.405,97.208 82.114 C 97.692 81.639,99.400 79.763,101.028 77.917 C 101.352 77.550,101.834 76.948,102.100 76.580 C 102.366 76.211,102.716 75.761,102.879 75.580 C 103.042 75.398,103.369 75.025,103.605 74.750 C 105.002 73.126,105.711 72.313,106.789 71.103 C 107.452 70.359,107.996 69.658,107.998 69.547 C 107.999 69.435,108.218 69.182,108.484 68.985 C 110.537 67.468,110.612 63.936,108.641 61.685 C 108.288 61.282,108.000 60.865,108.000 60.758 C 108.000 60.651,107.792 60.343,107.537 60.073 C 106.684 59.171,105.667 57.872,105.667 57.685 C 105.667 57.583,105.604 57.500,105.528 57.500 C 105.451 57.500,105.095 57.073,104.736 56.551 C 104.377 56.030,103.968 55.486,103.826 55.343 C 103.685 55.200,103.272 54.633,102.909 54.083 C 102.547 53.533,102.212 53.046,102.166 53.000 C 101.896 52.734,101.167 51.665,101.167 51.537 C 101.167 51.453,101.009 51.242,100.816 51.067 C 100.623 50.893,100.044 50.150,99.531 49.417 C 99.017 48.683,98.163 47.575,97.632 46.954 C 97.101 46.333,96.667 45.730,96.667 45.614 C 96.667 45.499,96.285 45.032,95.817 44.577 C 95.350 44.122,94.750 43.369,94.484 42.903 C 94.218 42.438,93.681 41.826,93.292 41.543 C 92.902 41.261,92.433 40.890,92.250 40.719 C 91.269 39.803,90.842 39.632,89.198 39.497 C 88.310 39.425,86.196 39.174,84.500 38.940 C 73.003 37.356,68.704 37.386,69.181 39.049 C 69.265 39.342,69.333 39.884,69.333 40.253 C 69.333 40.955,69.660 41.581,70.242 41.991 C 70.749 42.350,71.667 43.372,71.667 43.579 C 71.667 43.678,72.154 44.243,72.750 44.833 C 73.346 45.424,73.833 45.965,73.833 46.035 C 73.833 46.220,74.289 46.778,75.333 47.871 C 75.837 48.399,76.850 49.482,77.583 50.276 C 78.317 51.071,79.290 52.101,79.747 52.565 C 80.203 53.029,80.834 53.748,81.149 54.163 C 81.463 54.577,82.027 55.217,82.402 55.583 C 82.777 55.950,83.758 56.988,84.583 57.890 C 85.408 58.792,86.402 59.836,86.792 60.209 C 87.181 60.582,87.503 61.044,87.507 61.235 C 87.510 61.427,87.732 61.990,87.999 62.486 C 88.267 62.983,88.454 63.439,88.417 63.500 C 87.863 64.396,44.833 64.330,44.833 63.433 C 44.833 63.401,44.946 63.056,45.083 62.667 C 45.221 62.277,45.333 61.768,45.333 61.536 C 45.333 61.240,45.646 60.801,46.375 60.072 C 47.374 59.073,48.679 57.681,51.119 55.013 C 51.741 54.333,52.579 53.433,52.981 53.013 C 53.384 52.593,53.909 51.988,54.148 51.667 C 54.387 51.346,54.827 50.828,55.125 50.516 C 55.423 50.204,55.667 49.853,55.667 49.736 C 55.667 49.619,56.124 49.125,56.682 48.639 C 57.241 48.154,57.808 47.543,57.943 47.282 C 58.078 47.022,58.633 46.391,59.177 45.880 C 59.721 45.369,60.167 44.871,60.167 44.774 C 60.167 44.676,60.796 43.987,61.566 43.243 C 62.940 41.915,63.452 41.147,64.161 39.348 L 64.486 38.523 63.731 38.158 C 62.833 37.723,60.346 37.591,57.917 37.850 M37.364 65.112 C 38.143 65.441,38.698 65.847,39.500 66.673 C 40.096 67.286,40.813 67.944,41.095 68.134 C 41.781 68.598,44.153 71.854,44.366 72.625 C 44.459 72.963,44.628 73.317,44.740 73.411 C 44.852 73.506,45.188 74.146,45.487 74.833 C 45.786 75.521,46.161 76.233,46.321 76.417 C 46.481 76.600,46.783 77.162,46.992 77.667 C 47.801 79.617,48.553 81.167,48.690 81.167 C 48.769 81.167,48.835 81.260,48.837 81.375 C 48.839 81.490,48.989 81.771,49.170 82.000 C 49.547 82.478,51.000 85.401,51.000 85.682 C 51.000 85.785,51.228 86.157,51.508 86.510 C 52.036 87.177,53.333 90.085,53.333 90.602 C 53.333 90.765,53.519 91.092,53.745 91.328 C 54.250 91.855,55.281 93.941,55.552 94.982 C 55.662 95.405,55.985 96.087,56.270 96.500 C 56.965 97.503,58.000 99.582,58.000 99.972 C 58.000 100.144,58.251 100.615,58.558 101.018 C 59.524 102.284,59.781 102.967,60.114 105.147 C 60.217 105.825,60.012 105.994,59.075 105.997 C 58.294 106.000,58.000 105.774,58.000 105.170 C 58.000 104.511,57.542 104.000,56.560 103.566 C 55.968 103.304,55.666 103.072,55.666 102.877 C 55.664 102.165,54.541 100.856,53.708 100.595 C 53.502 100.530,53.333 100.344,53.333 100.180 C 53.333 99.774,52.407 98.526,51.952 98.319 C 51.748 98.226,51.287 97.696,50.928 97.142 C 50.569 96.588,50.186 96.100,50.077 96.058 C 49.968 96.016,49.479 95.480,48.992 94.866 C 48.504 94.252,48.021 93.698,47.919 93.635 C 47.817 93.572,47.476 93.145,47.163 92.685 C 46.850 92.226,46.420 91.758,46.209 91.645 C 45.998 91.532,45.566 91.059,45.249 90.595 C 44.445 89.415,44.237 89.167,44.054 89.167 C 43.839 89.167,43.162 88.403,42.614 87.543 C 42.366 87.154,41.878 86.647,41.528 86.416 C 41.179 86.184,40.766 85.730,40.612 85.406 C 40.288 84.726,40.073 84.438,39.520 83.940 C 38.760 83.256,38.414 82.872,38.000 82.252 C 37.771 81.909,37.188 81.250,36.705 80.786 C 36.221 80.323,35.662 79.675,35.463 79.347 C 35.121 78.785,33.863 77.500,33.655 77.500 C 33.602 77.500,33.396 77.174,33.197 76.775 C 32.998 76.376,32.441 75.677,31.959 75.221 C 31.477 74.765,30.862 74.098,30.591 73.738 C 30.320 73.378,29.588 72.573,28.966 71.950 C 28.343 71.327,27.833 70.720,27.833 70.600 C 27.833 70.238,26.848 68.997,26.436 68.841 C 25.893 68.634,25.608 66.343,26.014 65.452 C 26.422 64.557,35.414 64.287,37.364 65.112 M104.570 64.830 C 106.120 65.084,106.500 65.548,106.500 67.188 C 106.500 67.899,106.428 68.525,106.340 68.579 C 106.252 68.633,105.832 69.197,105.407 69.831 C 104.981 70.465,104.470 71.090,104.271 71.221 C 104.071 71.352,103.760 71.749,103.579 72.104 C 103.398 72.459,102.818 73.173,102.291 73.691 C 101.694 74.276,101.294 74.823,101.230 75.141 C 101.162 75.482,100.813 75.924,100.171 76.483 C 99.644 76.941,99.095 77.564,98.952 77.866 C 98.679 78.440,98.541 78.592,97.375 79.596 C 96.985 79.931,96.664 80.328,96.662 80.478 C 96.656 80.803,95.964 81.590,95.112 82.239 C 94.773 82.498,94.381 82.944,94.242 83.230 C 93.948 83.835,93.364 84.505,92.905 84.766 C 92.728 84.866,92.410 85.203,92.197 85.516 C 91.741 86.186,90.208 87.956,89.209 88.966 C 88.819 89.360,88.500 89.736,88.500 89.801 C 88.500 89.866,88.011 90.430,87.414 91.054 C 86.817 91.678,86.181 92.478,86.001 92.832 C 85.820 93.186,85.526 93.522,85.346 93.579 C 84.933 93.711,84.057 94.702,83.707 95.436 C 83.559 95.746,83.377 96.000,83.301 96.000 C 83.040 96.000,82.160 96.895,81.392 97.942 C 80.968 98.520,80.477 99.038,80.301 99.094 C 80.125 99.149,79.778 99.476,79.529 99.819 C 78.741 100.908,78.261 101.409,77.762 101.667 C 77.264 101.924,76.413 102.959,76.154 103.625 C 76.057 103.874,75.869 104.000,75.595 104.000 C 74.643 104.000,73.848 104.613,73.839 105.355 C 73.831 105.986,73.481 106.227,72.933 105.977 C 72.659 105.852,72.522 105.679,72.568 105.514 C 72.608 105.369,72.687 105.087,72.744 104.888 C 72.801 104.689,72.878 104.389,72.915 104.222 C 73.087 103.440,73.343 102.763,73.506 102.663 C 73.604 102.602,73.797 102.122,73.935 101.595 C 74.212 100.531,75.123 98.714,75.755 97.963 C 75.982 97.694,76.167 97.370,76.167 97.242 C 76.167 96.960,76.839 95.388,77.447 94.250 C 77.691 93.792,78.540 92.142,79.332 90.583 C 80.124 89.025,81.287 86.813,81.917 85.667 C 83.106 83.505,85.167 79.449,85.167 79.271 C 85.167 79.215,85.335 78.975,85.542 78.738 C 85.748 78.501,85.923 78.256,85.931 78.195 C 85.949 78.051,86.219 77.398,86.927 75.786 C 87.242 75.070,87.500 74.388,87.500 74.271 C 87.500 74.154,87.688 73.881,87.918 73.665 C 88.148 73.449,88.715 72.563,89.179 71.695 C 89.643 70.827,90.373 69.761,90.803 69.325 C 91.232 68.890,91.921 68.125,92.333 67.624 C 92.746 67.124,93.271 66.630,93.500 66.527 C 93.844 66.372,94.792 65.606,95.583 64.844 C 95.804 64.631,103.287 64.620,104.570 64.830 M61.269 107.432 C 61.510 107.941,61.517 108.054,61.318 108.179 C 60.949 108.413,60.751 108.262,60.737 107.735 C 60.711 106.717,60.883 106.619,61.269 107.432 " stroke="none" fill="#f8b020" fill-rule="evenodd"></path><path id="path3" d="M27.223 64.887 C 25.831 65.114,25.665 65.492,25.943 67.805 C 26.030 68.529,26.121 68.721,26.436 68.841 C 26.848 68.997,27.833 70.238,27.833 70.600 C 27.833 70.720,28.343 71.327,28.966 71.950 C 29.588 72.573,30.320 73.378,30.591 73.738 C 30.862 74.098,31.477 74.765,31.959 75.221 C 32.441 75.677,32.998 76.376,33.197 76.775 C 33.396 77.174,33.602 77.500,33.655 77.500 C 33.863 77.500,35.121 78.785,35.463 79.347 C 35.662 79.675,36.221 80.323,36.705 80.786 C 37.188 81.250,37.771 81.909,38.000 82.252 C 38.414 82.872,38.760 83.256,39.520 83.940 C 40.073 84.438,40.288 84.726,40.612 85.406 C 40.766 85.730,41.179 86.184,41.528 86.416 C 41.878 86.647,42.366 87.154,42.614 87.543 C 43.162 88.403,43.839 89.167,44.054 89.167 C 44.237 89.167,44.445 89.415,45.249 90.595 C 45.566 91.059,45.998 91.532,46.209 91.645 C 46.420 91.758,46.850 92.226,47.163 92.685 C 47.476 93.145,47.817 93.572,47.919 93.635 C 48.021 93.698,48.504 94.252,48.992 94.866 C 49.479 95.480,49.968 96.016,50.077 96.058 C 50.186 96.100,50.569 96.588,50.928 97.142 C 51.287 97.696,51.748 98.226,51.952 98.319 C 52.407 98.526,53.333 99.774,53.333 100.180 C 53.333 100.344,53.502 100.530,53.708 100.595 C 54.541 100.856,55.664 102.165,55.666 102.877 C 55.666 103.072,55.968 103.304,56.560 103.566 C 57.542 104.000,58.000 104.511,58.000 105.170 C 58.000 105.914,59.216 106.333,59.975 105.852 C 60.567 105.477,59.698 102.513,58.558 101.018 C 58.251 100.615,58.000 100.144,58.000 99.972 C 58.000 99.582,56.965 97.503,56.270 96.500 C 55.985 96.087,55.662 95.405,55.552 94.982 C 55.281 93.941,54.250 91.855,53.745 91.328 C 53.519 91.092,53.333 90.765,53.333 90.602 C 53.333 90.085,52.036 87.177,51.508 86.510 C 51.228 86.157,51.000 85.785,51.000 85.682 C 51.000 85.401,49.547 82.478,49.170 82.000 C 48.989 81.771,48.839 81.490,48.837 81.375 C 48.835 81.260,48.769 81.167,48.690 81.167 C 48.553 81.167,47.801 79.617,46.992 77.667 C 46.783 77.162,46.481 76.600,46.321 76.417 C 46.161 76.233,45.786 75.521,45.487 74.833 C 45.188 74.146,44.852 73.506,44.740 73.411 C 44.628 73.317,44.459 72.963,44.366 72.625 C 44.153 71.854,41.781 68.598,41.095 68.134 C 40.813 67.944,40.096 67.286,39.500 66.673 C 37.670 64.788,37.207 64.661,32.281 64.693 C 30.064 64.708,27.788 64.795,27.223 64.887 M95.583 64.844 C 94.792 65.606,93.844 66.372,93.500 66.527 C 93.271 66.630,92.746 67.124,92.333 67.624 C 91.921 68.125,91.232 68.890,90.803 69.325 C 90.373 69.761,89.643 70.827,89.179 71.695 C 88.715 72.563,88.148 73.449,87.918 73.665 C 87.688 73.881,87.500 74.154,87.500 74.271 C 87.500 74.388,87.242 75.070,86.927 75.786 C 86.219 77.398,85.949 78.051,85.931 78.195 C 85.923 78.256,85.748 78.501,85.542 78.738 C 85.335 78.975,85.167 79.215,85.167 79.271 C 85.167 79.449,83.106 83.505,81.917 85.667 C 81.287 86.813,80.124 89.025,79.332 90.583 C 78.540 92.142,77.691 93.792,77.447 94.250 C 76.839 95.388,76.167 96.960,76.167 97.242 C 76.167 97.370,75.982 97.694,75.755 97.963 C 75.123 98.714,74.212 100.531,73.935 101.595 C 73.797 102.122,73.604 102.602,73.506 102.663 C 73.343 102.763,73.087 103.440,72.915 104.222 C 72.878 104.389,72.801 104.689,72.744 104.888 C 72.687 105.087,72.608 105.369,72.568 105.514 C 72.522 105.679,72.659 105.852,72.933 105.977 C 73.481 106.227,73.831 105.986,73.839 105.355 C 73.848 104.613,74.643 104.000,75.595 104.000 C 75.869 104.000,76.057 103.874,76.154 103.625 C 76.413 102.959,77.264 101.924,77.762 101.667 C 78.261 101.409,78.741 100.908,79.529 99.819 C 79.778 99.476,80.125 99.149,80.301 99.094 C 80.477 99.038,80.968 98.520,81.392 97.942 C 82.160 96.895,83.040 96.000,83.301 96.000 C 83.377 96.000,83.559 95.746,83.707 95.436 C 84.057 94.702,84.933 93.711,85.346 93.579 C 85.526 93.522,85.820 93.186,86.001 92.832 C 86.181 92.478,86.817 91.678,87.414 91.054 C 88.011 90.430,88.500 89.866,88.500 89.801 C 88.500 89.736,88.819 89.360,89.209 88.966 C 90.208 87.956,91.741 86.186,92.197 85.516 C 92.410 85.203,92.728 84.866,92.905 84.766 C 93.364 84.505,93.948 83.835,94.242 83.230 C 94.381 82.944,94.773 82.498,95.112 82.239 C 95.964 81.590,96.656 80.803,96.662 80.478 C 96.664 80.328,96.985 79.931,97.375 79.596 C 98.541 78.592,98.679 78.440,98.952 77.866 C 99.095 77.564,99.644 76.941,100.171 76.483 C 100.813 75.924,101.162 75.482,101.230 75.141 C 101.294 74.823,101.694 74.276,102.291 73.691 C 102.818 73.173,103.398 72.459,103.579 72.104 C 103.760 71.749,104.071 71.352,104.271 71.221 C 104.470 71.090,104.981 70.465,105.407 69.831 C 105.832 69.197,106.252 68.633,106.340 68.579 C 106.428 68.525,106.500 67.899,106.500 67.188 C 106.500 64.866,105.951 64.664,99.667 64.676 C 97.394 64.680,95.680 64.751,95.583 64.844 M60.797 107.042 C 60.667 107.415,60.746 108.219,60.917 108.274 C 61.393 108.428,61.556 108.037,61.269 107.432 C 60.957 106.776,60.904 106.732,60.797 107.042 " stroke="none" fill="#eb720a" fill-rule="evenodd"></path><path id="path4" d="M188.250 46.094 C 185.470 46.515,184.349 47.568,184.001 50.083 C 183.698 52.279,183.843 105.735,184.154 106.500 C 185.235 109.154,186.376 109.866,189.583 109.885 C 193.991 109.911,194.586 109.141,194.831 103.083 C 194.979 99.435,195.133 98.527,195.701 97.936 C 196.154 97.465,196.665 96.635,196.666 96.368 C 196.667 95.990,197.382 95.170,198.076 94.752 C 198.447 94.528,198.938 94.087,199.167 93.771 C 199.797 92.902,200.041 92.799,200.959 93.012 C 202.430 93.353,202.663 93.503,203.115 94.399 C 203.351 94.867,203.978 95.715,204.508 96.283 C 205.038 96.851,205.526 97.488,205.592 97.699 C 205.658 97.911,205.762 98.121,205.823 98.167 C 205.884 98.212,206.098 98.520,206.298 98.850 C 206.499 99.180,206.963 99.705,207.331 100.016 C 207.698 100.328,207.999 100.696,208.000 100.833 C 208.003 101.300,208.663 102.171,209.416 102.702 C 209.829 102.993,210.167 103.362,210.167 103.523 C 210.167 103.875,210.809 105.000,211.010 105.000 C 211.089 105.000,211.560 105.544,212.058 106.208 C 214.459 109.417,215.473 109.917,219.583 109.917 C 222.351 109.917,223.461 109.661,224.322 108.825 L 224.958 108.207 224.877 106.979 C 224.770 105.384,223.752 102.963,222.926 102.338 C 222.404 101.944,222.056 101.474,221.522 100.444 C 221.388 100.184,220.853 99.546,220.334 99.027 C 219.815 98.508,219.335 97.858,219.267 97.583 C 219.196 97.296,218.761 96.725,218.244 96.242 C 217.749 95.779,217.222 95.108,217.073 94.752 C 216.924 94.395,216.359 93.605,215.818 92.996 C 215.276 92.386,214.833 91.810,214.833 91.714 C 214.833 91.619,214.725 91.451,214.592 91.340 C 214.459 91.230,214.119 90.731,213.837 90.231 C 213.555 89.731,213.148 89.242,212.932 89.143 C 212.709 89.042,212.371 88.596,212.145 88.107 C 211.928 87.636,211.402 86.892,210.978 86.455 C 210.240 85.696,210.200 85.606,210.091 84.438 C 209.968 83.129,210.027 82.984,210.927 82.395 C 211.136 82.258,211.590 81.701,211.937 81.156 C 212.292 80.598,212.688 80.167,212.844 80.167 C 213.170 80.167,214.577 78.713,214.736 78.212 C 214.796 78.022,215.032 77.820,215.260 77.762 C 215.774 77.633,217.000 76.396,217.000 76.007 C 217.000 75.849,217.195 75.631,217.433 75.523 C 218.220 75.164,219.046 74.431,219.273 73.888 C 219.410 73.560,219.846 73.122,220.404 72.751 C 220.982 72.367,221.477 71.864,221.765 71.366 C 222.014 70.935,222.511 70.246,222.869 69.833 C 223.228 69.421,223.601 68.983,223.698 68.859 C 224.216 68.206,223.442 65.827,222.510 65.206 C 220.348 63.766,214.966 64.007,212.948 65.635 C 212.598 65.917,211.980 66.308,211.574 66.505 C 210.900 66.831,210.566 67.180,210.075 68.069 C 209.978 68.243,209.654 68.518,209.353 68.679 C 208.542 69.114,208.160 69.512,207.880 70.210 C 207.692 70.681,207.437 70.932,206.856 71.219 C 206.290 71.500,205.971 71.808,205.664 72.371 C 205.405 72.846,204.929 73.353,204.424 73.695 C 203.967 74.004,203.443 74.545,203.240 74.917 C 203.040 75.283,202.564 75.796,202.184 76.055 C 201.804 76.315,201.182 76.967,200.803 77.504 C 200.424 78.042,199.904 78.568,199.647 78.675 C 199.390 78.781,198.974 79.142,198.724 79.476 C 198.473 79.810,198.219 80.121,198.159 80.167 C 198.099 80.212,197.964 80.413,197.859 80.612 C 197.682 80.948,196.854 81.083,194.973 81.083 C 194.958 81.083,194.897 73.808,194.837 64.917 C 194.701 44.841,195.171 46.787,190.250 45.952 C 189.975 45.905,189.075 45.969,188.250 46.094 M341.083 46.081 C 340.808 46.212,340.448 46.322,340.282 46.326 C 339.814 46.337,338.679 47.337,338.191 48.167 L 337.750 48.917 337.698 77.083 C 337.639 109.299,337.534 107.193,339.278 108.862 C 340.798 110.317,345.664 110.356,347.159 108.924 C 348.434 107.703,348.400 108.073,348.522 94.083 C 348.652 79.309,348.657 79.265,350.576 77.673 C 350.737 77.539,351.044 77.033,351.258 76.548 C 351.573 75.836,351.725 75.667,352.049 75.667 C 352.270 75.667,352.782 75.491,353.186 75.275 C 355.527 74.031,360.180 74.035,362.205 75.283 C 362.547 75.494,362.922 75.669,363.038 75.672 C 363.255 75.677,364.167 76.409,364.167 76.577 C 364.167 76.628,364.310 76.988,364.485 77.377 C 364.660 77.765,364.854 78.383,364.916 78.750 C 364.978 79.117,365.163 79.754,365.327 80.167 C 365.923 81.666,366.000 83.100,366.016 93.045 C 366.034 104.587,366.204 106.829,367.210 108.811 C 368.041 110.448,373.989 110.419,375.245 108.771 C 376.169 107.561,376.192 107.101,376.117 91.923 C 376.036 75.689,375.950 74.799,374.321 73.238 C 374.047 72.976,373.833 72.596,373.833 72.371 C 373.833 71.737,372.745 69.959,371.791 69.035 C 371.310 68.569,370.669 67.888,370.366 67.522 C 370.036 67.123,369.402 66.659,368.783 66.363 C 368.215 66.091,367.552 65.678,367.309 65.444 C 364.988 63.206,353.394 63.142,349.542 65.346 C 349.244 65.516,348.997 65.602,348.993 65.536 C 348.989 65.470,348.903 65.079,348.803 64.667 C 348.693 64.215,348.579 60.899,348.518 56.333 C 348.404 47.817,348.424 47.952,347.088 46.886 C 346.105 46.101,342.156 45.572,341.083 46.081 M153.833 47.757 C 153.146 47.882,152.255 48.100,151.854 48.242 C 151.453 48.384,150.976 48.500,150.794 48.500 C 147.465 48.500,142.081 51.572,138.846 55.317 C 138.656 55.537,138.500 55.773,138.500 55.841 C 138.500 55.908,138.148 56.440,137.717 57.023 C 136.348 58.876,135.978 60.094,135.360 64.777 C 134.920 68.110,136.211 73.892,137.736 75.418 C 137.927 75.609,138.168 75.952,138.271 76.179 C 138.548 76.788,139.311 77.646,139.812 77.911 C 140.053 78.038,140.688 78.561,141.224 79.072 C 141.954 79.769,142.362 80.027,142.854 80.106 C 143.214 80.164,143.939 80.470,144.463 80.788 C 146.114 81.786,146.933 82.148,147.940 82.323 C 149.930 82.668,152.433 83.285,152.963 83.562 C 153.651 83.921,156.566 84.667,157.280 84.667 C 158.692 84.667,162.279 85.619,163.015 86.189 C 163.344 86.444,163.982 86.775,164.432 86.926 C 165.421 87.256,166.113 87.887,166.656 88.953 C 166.879 89.391,167.250 89.957,167.480 90.210 C 168.404 91.225,168.005 94.787,166.804 96.251 C 166.579 96.526,166.216 97.050,165.998 97.417 C 165.531 98.203,165.439 98.267,163.917 98.881 C 157.493 101.472,153.934 101.345,147.721 98.302 C 147.522 98.204,147.121 97.792,146.830 97.387 C 146.539 96.981,146.008 96.456,145.650 96.219 C 145.293 95.983,145.000 95.697,145.000 95.585 C 145.000 95.138,143.651 91.779,143.296 91.339 C 143.087 91.082,142.718 90.500,142.475 90.048 C 140.948 87.206,134.617 87.204,133.327 90.046 C 132.519 91.825,133.523 98.936,134.788 100.396 C 134.957 100.591,135.273 101.087,135.492 101.500 C 135.710 101.912,136.083 102.487,136.319 102.777 C 136.556 103.067,136.938 103.574,137.167 103.904 C 137.396 104.234,137.818 104.654,138.105 104.837 C 138.392 105.019,138.950 105.525,139.346 105.959 C 139.815 106.474,140.571 107.012,141.513 107.500 C 142.308 107.912,143.313 108.502,143.746 108.811 C 144.582 109.407,145.225 109.587,148.583 110.166 C 149.683 110.356,151.108 110.630,151.750 110.775 C 153.731 111.223,157.117 111.266,159.167 110.869 C 160.129 110.683,161.554 110.444,162.333 110.338 C 165.534 109.905,167.769 109.201,168.752 108.318 C 169.124 107.983,170.884 107.167,171.234 107.167 C 171.357 107.167,171.785 106.810,172.184 106.375 C 172.584 105.940,173.234 105.377,173.630 105.124 C 174.028 104.869,174.579 104.293,174.866 103.832 C 175.150 103.374,175.437 103.000,175.502 103.000 C 176.098 103.000,178.014 99.510,178.750 97.083 C 179.823 93.543,179.525 88.156,178.113 85.583 C 178.012 85.400,177.616 84.606,177.233 83.820 C 176.850 83.033,176.299 82.171,176.009 81.903 C 175.720 81.636,175.318 81.236,175.116 81.016 C 173.976 79.768,173.501 79.349,172.750 78.925 C 172.292 78.667,171.767 78.325,171.583 78.167 C 170.856 77.539,169.151 76.689,167.575 76.169 C 166.663 75.867,165.654 75.490,165.333 75.330 C 164.352 74.842,161.824 74.227,157.750 73.488 C 157.108 73.371,155.008 72.756,153.083 72.120 L 149.583 70.964 148.319 69.673 C 146.243 67.551,146.063 64.460,147.862 61.811 C 148.369 61.065,149.912 59.833,150.339 59.833 C 150.437 59.833,151.244 59.515,152.133 59.125 L 153.750 58.417 156.667 58.417 C 159.546 58.417,159.596 58.423,160.583 58.901 C 161.133 59.167,161.921 59.508,162.333 59.659 C 163.670 60.147,165.333 61.120,165.333 61.413 C 165.333 61.483,165.585 61.962,165.893 62.478 C 166.201 62.994,166.583 63.829,166.742 64.333 C 166.901 64.837,167.208 65.625,167.425 66.083 C 167.642 66.542,167.942 67.292,168.093 67.750 C 168.880 70.150,170.796 71.175,173.977 70.901 C 176.140 70.714,178.333 69.169,178.333 67.832 C 178.333 67.511,178.411 66.986,178.507 66.666 C 178.722 65.943,178.449 63.791,177.989 62.583 C 177.814 62.125,177.549 61.337,177.400 60.833 C 177.251 60.329,176.913 59.488,176.648 58.963 C 176.383 58.439,176.167 57.928,176.167 57.829 C 176.167 57.729,175.952 57.446,175.689 57.199 C 175.427 56.952,175.000 56.381,174.741 55.931 C 174.084 54.789,171.328 52.098,170.275 51.570 C 169.803 51.334,169.192 50.970,168.917 50.761 C 167.799 49.912,166.067 49.180,164.333 48.825 C 163.371 48.627,162.102 48.320,161.513 48.141 C 159.361 47.489,156.183 47.330,153.833 47.757 M191.103 48.290 C 191.703 48.534,191.849 48.706,192.270 49.660 L 192.750 50.750 192.833 66.917 L 192.917 83.083 193.300 83.700 C 193.511 84.040,193.991 84.543,194.366 84.819 L 195.049 85.321 195.509 84.994 C 195.761 84.814,196.061 84.667,196.174 84.667 C 196.559 84.667,198.226 83.098,205.384 76.003 C 214.194 67.270,214.308 67.181,216.784 67.132 C 219.253 67.083,220.748 68.009,219.858 69.037 C 219.599 69.338,219.303 69.827,219.202 70.125 C 219.100 70.423,218.542 71.136,217.961 71.708 C 217.137 72.521,212.951 76.890,212.366 77.547 C 212.302 77.619,211.456 78.444,210.485 79.380 C 207.985 81.793,207.442 82.761,207.596 84.528 C 207.659 85.250,207.776 85.881,207.855 85.930 C 207.935 85.979,208.000 86.129,208.000 86.262 C 208.000 86.489,209.500 88.712,209.902 89.083 C 210.002 89.175,210.381 89.700,210.745 90.250 C 211.108 90.800,211.587 91.438,211.808 91.667 C 212.030 91.896,212.400 92.383,212.632 92.750 C 213.027 93.375,214.313 95.144,216.011 97.397 C 216.418 97.935,216.825 98.498,216.917 98.646 C 217.008 98.794,217.427 99.328,217.846 99.833 C 218.266 100.337,218.838 101.087,219.118 101.500 C 219.399 101.912,219.795 102.400,219.999 102.583 C 220.203 102.767,220.605 103.358,220.893 103.898 C 221.181 104.437,221.516 105.058,221.636 105.278 C 222.278 106.442,220.637 107.699,218.667 107.553 C 217.450 107.462,214.833 106.379,214.833 105.966 C 214.833 105.844,211.136 100.970,210.624 100.417 C 210.510 100.294,209.892 99.465,209.250 98.576 C 208.608 97.687,207.817 96.649,207.492 96.271 C 207.167 95.893,206.760 95.358,206.587 95.083 C 204.968 92.500,202.789 90.406,201.570 90.263 C 201.027 90.199,200.462 90.112,200.314 90.069 C 200.155 90.023,199.704 90.298,199.206 90.746 C 198.745 91.161,198.316 91.500,198.254 91.500 C 198.058 91.500,196.667 92.698,196.667 92.866 C 196.667 92.954,196.142 93.560,195.500 94.213 C 194.858 94.866,194.333 95.473,194.333 95.562 C 194.333 95.651,194.234 95.842,194.112 95.987 C 193.200 97.071,192.712 100.184,192.669 105.184 C 192.658 106.495,190.547 107.766,189.009 107.389 C 188.408 107.242,187.840 107.102,187.745 107.080 C 187.651 107.057,187.351 106.599,187.079 106.061 L 186.583 105.083 186.536 78.083 L 186.489 51.083 186.928 49.874 C 187.436 48.476,187.408 48.502,188.832 48.144 C 189.984 47.854,190.038 47.858,191.103 48.290 M344.703 48.297 C 345.214 48.533,345.412 48.782,345.828 49.710 L 346.333 50.836 346.333 56.900 C 346.333 63.997,346.489 66.073,347.091 66.982 C 347.475 67.562,348.910 68.630,349.189 68.545 C 349.259 68.523,349.789 68.277,350.366 67.997 C 352.080 67.166,353.208 66.849,356.917 66.154 C 358.143 65.924,360.939 66.063,362.085 66.411 C 362.542 66.550,363.146 66.664,363.426 66.665 C 364.203 66.668,366.555 67.587,367.472 68.246 C 367.922 68.569,368.373 68.833,368.474 68.833 C 368.636 68.833,369.216 69.405,371.083 71.410 C 371.863 72.247,373.595 75.972,374.109 77.917 C 374.605 79.797,374.582 105.255,374.083 106.246 C 373.604 107.197,372.124 107.735,370.364 107.598 C 367.827 107.399,367.940 108.050,367.818 92.917 C 367.699 78.150,367.784 78.840,365.690 75.583 C 364.782 74.172,364.275 73.649,363.400 73.220 C 362.905 72.978,362.500 72.726,362.500 72.660 C 362.500 72.262,359.670 71.667,357.781 71.667 C 351.846 71.667,347.341 75.673,346.629 81.583 C 346.552 82.225,346.435 87.853,346.369 94.090 L 346.250 105.431 345.697 106.129 C 344.838 107.213,344.319 107.503,342.960 107.657 L 341.750 107.795 341.182 107.193 C 340.870 106.862,340.458 106.252,340.266 105.837 L 339.917 105.083 339.869 78.101 L 339.822 51.119 340.247 49.851 C 340.926 47.829,342.503 47.279,344.703 48.297 M161.442 50.354 C 162.528 50.548,163.679 50.754,164.000 50.812 C 164.321 50.870,165.339 51.345,166.263 51.868 C 167.186 52.391,168.141 52.895,168.385 52.988 C 168.791 53.142,170.521 54.658,171.443 55.667 C 172.880 57.239,173.685 58.275,173.760 58.649 C 173.807 58.888,173.970 59.308,174.121 59.583 C 176.064 63.128,176.552 65.425,175.682 66.930 C 173.971 69.890,170.038 68.450,169.348 64.611 C 168.882 62.022,165.646 58.208,163.146 57.302 C 158.410 55.585,154.400 55.601,149.667 57.358 C 146.286 58.612,143.419 63.492,144.165 66.723 C 144.253 67.105,144.327 67.669,144.329 67.978 C 144.351 70.994,150.231 74.586,156.917 75.666 C 161.896 76.471,171.199 79.688,171.605 80.746 C 171.648 80.859,172.132 81.319,172.680 81.767 C 173.248 82.233,173.833 82.894,174.042 83.308 C 174.244 83.707,174.582 84.220,174.794 84.448 C 175.690 85.415,175.870 85.888,176.341 88.500 C 176.674 90.351,176.754 93.574,176.504 95.083 C 175.995 98.159,175.816 98.638,174.516 100.417 C 174.181 100.875,173.784 101.444,173.634 101.681 C 173.484 101.918,173.121 102.330,172.827 102.597 C 172.533 102.865,171.912 103.438,171.447 103.872 C 170.982 104.305,170.346 104.781,170.036 104.928 C 169.725 105.076,169.321 105.345,169.139 105.528 C 168.759 105.908,167.008 106.736,165.667 107.171 C 165.162 107.334,164.213 107.660,163.558 107.896 C 159.677 109.290,151.278 109.156,147.602 107.640 C 146.971 107.380,146.327 107.167,146.171 107.167 C 144.959 107.167,141.103 104.536,138.938 102.232 C 135.707 98.794,133.810 92.247,135.685 91.002 C 138.137 89.374,141.219 91.045,141.905 94.375 C 141.957 94.627,142.038 95.016,142.084 95.238 C 142.130 95.461,142.262 95.742,142.378 95.863 C 142.493 95.984,143.025 96.694,143.558 97.441 C 144.910 99.332,146.477 100.627,148.576 101.587 C 152.508 103.385,162.216 103.031,165.300 100.977 C 165.694 100.715,166.077 100.500,166.151 100.500 C 166.402 100.500,168.749 97.918,169.029 97.333 C 170.039 95.226,170.235 92.011,169.505 89.500 C 169.092 88.079,166.909 85.487,165.598 84.862 C 163.557 83.888,159.438 82.527,157.953 82.335 C 156.239 82.114,151.656 81.081,150.083 80.561 C 145.517 79.053,145.529 79.057,143.477 77.866 C 142.325 77.196,140.261 75.197,139.744 74.250 C 139.494 73.792,139.067 72.967,138.795 72.417 C 138.524 71.867,138.207 71.304,138.092 71.167 C 137.546 70.516,137.242 64.256,137.674 62.583 C 138.567 59.132,142.689 53.951,145.500 52.748 C 146.004 52.533,147.020 52.029,147.758 51.629 C 148.886 51.017,149.428 50.843,151.174 50.535 C 154.944 49.870,158.398 49.809,161.442 50.354 M275.833 53.656 C 274.404 54.035,272.874 55.132,272.826 55.813 C 272.822 55.870,272.746 56.254,272.657 56.667 C 272.568 57.079,272.429 58.590,272.349 60.024 C 272.155 63.457,271.555 64.286,269.239 64.325 C 263.998 64.413,263.027 73.342,268.126 74.562 C 268.744 74.710,269.896 75.038,270.685 75.291 L 272.120 75.750 272.227 76.983 C 272.285 77.662,272.333 82.207,272.333 87.084 C 272.333 95.988,272.478 99.465,272.918 101.167 C 273.276 102.549,273.982 104.199,274.416 104.667 C 274.629 104.896,275.019 105.458,275.283 105.917 C 275.627 106.514,276.067 106.950,276.840 107.458 C 277.432 107.847,278.034 108.306,278.177 108.479 C 279.348 109.891,285.922 110.558,289.218 109.600 C 290.857 109.123,291.641 107.692,291.782 104.917 C 291.944 101.737,290.895 100.260,288.112 99.749 C 283.163 98.839,283.333 99.297,283.333 86.913 C 283.333 74.727,283.184 75.298,286.455 74.895 C 290.924 74.344,291.750 73.515,291.750 69.583 C 291.750 65.716,290.659 64.603,286.616 64.339 C 283.785 64.155,283.333 63.532,283.333 59.808 C 283.333 58.792,283.196 57.599,282.900 56.047 C 282.826 55.657,281.820 54.641,281.038 54.165 C 279.841 53.437,277.518 53.210,275.833 53.656 M278.908 55.866 C 280.193 56.293,280.596 57.354,280.720 60.628 C 280.892 65.205,281.853 66.459,285.521 66.891 C 287.013 67.067,287.656 67.229,288.542 67.652 L 289.667 68.191 289.667 69.679 C 289.667 70.883,289.620 71.167,289.419 71.167 C 289.283 71.167,288.729 71.381,288.187 71.644 C 287.470 71.991,286.825 72.153,285.810 72.240 C 284.514 72.351,283.939 72.536,282.632 73.261 C 282.132 73.539,281.738 74.045,281.151 75.167 L 280.758 75.917 280.696 84.738 C 280.622 95.276,280.747 97.396,281.529 98.863 C 282.540 100.760,283.719 101.671,285.583 101.996 C 286.745 102.198,288.173 102.561,289.038 102.873 C 289.509 103.043,289.525 103.087,289.755 104.889 C 289.864 105.743,289.069 106.806,288.101 107.099 C 287.908 107.157,287.600 107.337,287.417 107.499 C 286.150 108.617,280.042 107.367,278.299 105.633 C 277.857 105.193,277.432 104.833,277.354 104.833 C 277.058 104.833,276.336 103.527,275.833 102.083 C 274.786 99.073,274.801 99.264,274.680 87.083 C 274.571 75.989,274.568 75.912,274.202 75.215 C 273.999 74.829,273.831 74.417,273.828 74.298 C 273.809 73.571,272.153 72.589,270.649 72.415 C 269.963 72.335,269.330 72.126,268.768 71.795 C 268.301 71.519,267.747 71.229,267.536 71.149 C 267.174 71.011,267.156 70.929,267.202 69.651 L 267.250 68.298 268.452 67.568 C 269.485 66.939,269.823 66.822,270.868 66.733 C 273.468 66.511,274.404 65.039,274.598 60.865 L 274.716 58.330 275.483 57.093 C 276.521 55.419,277.021 55.240,278.908 55.866 M23.271 63.199 C 22.205 65.018,22.300 67.184,23.508 68.631 C 23.641 68.791,23.958 69.240,24.213 69.630 C 24.467 70.020,25.030 70.735,25.463 71.218 C 25.896 71.701,26.587 72.501,27.000 72.995 C 27.810 73.964,29.268 75.609,30.847 77.333 C 31.392 77.929,32.137 78.802,32.503 79.274 C 32.868 79.745,33.273 80.172,33.403 80.222 C 33.534 80.272,33.940 80.754,34.306 81.294 C 34.673 81.833,35.223 82.497,35.528 82.768 C 35.833 83.039,36.296 83.571,36.556 83.951 C 36.816 84.331,37.134 84.683,37.264 84.732 C 37.394 84.782,37.501 84.919,37.503 85.036 C 37.504 85.154,37.960 85.737,38.515 86.333 C 39.070 86.929,39.640 87.642,39.781 87.917 C 39.922 88.192,40.399 88.766,40.841 89.194 C 41.283 89.621,41.832 90.269,42.063 90.634 C 42.293 90.998,42.898 91.691,43.407 92.172 C 43.917 92.654,44.333 93.136,44.333 93.244 C 44.333 93.351,44.807 93.921,45.387 94.511 C 45.966 95.101,46.603 95.854,46.802 96.184 C 47.001 96.515,47.521 97.123,47.957 97.536 C 48.393 97.949,48.868 98.489,49.011 98.736 C 49.303 99.236,51.073 101.209,52.542 102.671 C 53.069 103.195,53.500 103.694,53.500 103.778 C 53.500 103.863,53.784 104.229,54.132 104.591 C 54.479 104.954,55.081 105.681,55.470 106.208 C 55.859 106.735,56.247 107.167,56.332 107.167 C 56.417 107.167,56.878 107.692,57.357 108.333 C 57.835 108.975,58.307 109.503,58.405 109.506 C 58.503 109.510,58.846 109.863,59.167 110.291 C 59.487 110.718,60.237 111.574,60.833 112.193 C 61.429 112.811,62.442 113.884,63.083 114.577 C 64.283 115.873,65.639 117.000,65.998 117.000 C 66.850 117.000,69.022 116.108,69.251 115.664 C 69.388 115.399,70.025 114.660,70.667 114.023 C 71.308 113.385,71.834 112.800,71.835 112.723 C 71.837 112.646,72.118 112.277,72.460 111.902 C 72.803 111.527,73.683 110.522,74.417 109.668 C 75.150 108.814,76.051 107.808,76.418 107.433 C 76.786 107.057,77.383 106.375,77.746 105.917 C 78.108 105.458,78.501 105.024,78.618 104.951 C 78.736 104.878,79.259 104.278,79.781 103.617 C 80.304 102.957,80.818 102.363,80.924 102.297 C 81.166 102.147,84.817 97.962,85.480 97.074 C 85.750 96.712,86.234 96.169,86.554 95.866 C 86.875 95.563,87.252 95.076,87.391 94.783 C 87.531 94.490,88.119 93.752,88.698 93.142 C 89.703 92.084,90.337 91.335,92.292 88.891 C 92.774 88.290,93.364 87.643,93.604 87.454 C 93.843 87.266,94.293 86.715,94.603 86.230 C 94.913 85.745,95.467 85.107,95.834 84.812 C 96.202 84.517,96.691 83.954,96.921 83.560 C 97.152 83.167,97.607 82.642,97.932 82.394 C 98.257 82.145,98.736 81.637,98.995 81.263 C 99.254 80.889,99.867 80.162,100.358 79.647 C 101.860 78.070,102.673 77.115,103.138 76.381 C 103.383 75.995,103.659 75.676,103.752 75.673 C 103.844 75.669,104.257 75.240,104.668 74.718 C 105.080 74.196,105.997 73.127,106.707 72.343 C 107.417 71.558,107.998 70.853,107.999 70.776 C 107.999 70.699,108.414 70.179,108.919 69.620 C 109.501 68.977,109.904 68.355,110.016 67.927 C 110.113 67.555,110.274 66.970,110.373 66.627 C 110.558 65.984,110.177 63.611,109.834 63.267 C 109.751 63.185,109.792 63.522,109.923 64.017 C 110.391 65.774,109.727 68.066,108.484 68.985 C 108.218 69.182,107.999 69.435,107.998 69.547 C 107.996 69.658,107.452 70.359,106.789 71.103 C 105.711 72.313,105.002 73.126,103.605 74.750 C 103.369 75.025,103.042 75.398,102.879 75.580 C 102.716 75.761,102.366 76.211,102.100 76.580 C 101.834 76.948,101.352 77.550,101.028 77.917 C 99.400 79.763,97.692 81.639,97.208 82.114 C 96.910 82.405,96.667 82.728,96.667 82.830 C 96.667 82.932,96.142 83.529,95.500 84.155 C 94.858 84.782,94.333 85.365,94.333 85.451 C 94.333 85.538,93.808 86.149,93.167 86.810 C 92.525 87.471,92.000 88.105,92.000 88.219 C 92.000 88.333,91.513 88.909,90.917 89.500 C 90.321 90.091,89.833 90.663,89.833 90.772 C 89.833 90.881,89.488 91.295,89.066 91.693 C 88.643 92.091,87.901 92.949,87.416 93.600 C 86.932 94.250,86.208 95.158,85.809 95.617 C 85.410 96.076,84.483 97.149,83.750 98.002 C 83.017 98.855,81.629 100.429,80.667 101.499 C 79.704 102.568,78.317 104.147,77.583 105.007 C 76.850 105.866,76.025 106.804,75.750 107.089 C 75.299 107.558,74.704 108.279,73.031 110.387 C 72.727 110.770,72.295 111.283,72.072 111.527 C 71.849 111.771,71.667 112.020,71.667 112.082 C 71.667 112.143,71.188 112.742,70.603 113.413 C 70.018 114.084,69.411 114.850,69.254 115.116 C 68.916 115.688,68.028 116.332,67.573 116.336 C 67.395 116.337,66.956 116.441,66.596 116.566 C 65.770 116.853,65.338 116.624,64.350 115.374 C 63.972 114.896,63.471 114.379,63.236 114.225 C 63.001 114.072,62.558 113.554,62.252 113.076 C 61.946 112.597,61.430 112.003,61.106 111.756 C 60.781 111.508,60.327 110.993,60.097 110.611 C 59.867 110.229,59.333 109.579,58.909 109.167 C 58.486 108.754,58.035 108.229,57.909 108.000 C 57.782 107.771,57.226 107.134,56.673 106.586 C 56.119 106.037,55.667 105.497,55.667 105.386 C 55.667 105.274,55.569 105.123,55.450 105.050 C 55.330 104.977,54.975 104.579,54.659 104.167 C 54.144 103.493,51.732 100.707,51.485 100.500 C 51.431 100.454,50.817 99.742,50.122 98.917 C 48.463 96.949,46.916 95.168,46.056 94.237 C 45.675 93.823,45.045 93.074,44.657 92.571 C 44.269 92.068,43.858 91.602,43.744 91.536 C 43.538 91.417,42.000 89.582,42.000 89.456 C 42.000 89.419,41.692 89.058,41.316 88.653 C 40.939 88.248,40.210 87.360,39.696 86.679 C 39.181 85.999,38.489 85.174,38.158 84.846 C 37.826 84.518,37.389 83.973,37.186 83.634 C 36.983 83.295,36.445 82.706,35.992 82.326 C 35.538 81.946,35.167 81.523,35.167 81.386 C 35.167 81.249,34.642 80.620,34.000 79.989 C 33.358 79.357,32.833 78.777,32.833 78.699 C 32.833 78.622,32.438 78.151,31.954 77.654 C 31.471 77.157,30.878 76.487,30.637 76.167 C 30.396 75.846,29.779 75.147,29.266 74.614 C 28.753 74.080,28.333 73.574,28.333 73.489 C 28.333 73.403,28.275 73.333,28.205 73.333 C 28.134 73.333,27.619 72.790,27.059 72.125 C 26.500 71.460,25.600 70.392,25.057 69.750 C 23.904 68.384,22.760 66.287,22.807 65.622 C 22.864 64.800,23.321 63.290,23.608 62.973 C 23.761 62.803,23.844 62.622,23.791 62.569 C 23.739 62.517,23.505 62.800,23.271 63.199 M240.833 63.917 C 240.146 64.045,239.246 64.199,238.833 64.258 C 237.511 64.449,235.599 65.276,235.167 65.843 C 235.064 65.977,233.513 66.667,233.314 66.667 C 233.146 66.667,231.775 67.688,231.167 68.266 C 230.938 68.484,230.358 68.968,229.878 69.342 C 229.399 69.717,228.599 70.599,228.101 71.303 C 227.603 72.007,226.980 72.808,226.717 73.083 C 226.454 73.358,225.946 74.221,225.587 75.000 C 225.229 75.779,224.687 76.807,224.384 77.284 C 224.081 77.761,223.833 78.255,223.833 78.383 C 223.833 78.510,223.684 79.049,223.501 79.580 C 221.815 84.482,222.570 96.352,224.690 98.271 C 224.860 98.425,225.000 98.638,225.000 98.744 C 225.000 98.850,225.262 99.470,225.583 100.121 C 225.904 100.772,226.167 101.378,226.167 101.468 C 226.167 101.662,227.279 102.667,227.494 102.667 C 227.575 102.667,227.842 103.076,228.087 103.576 C 228.586 104.595,228.826 104.842,229.555 105.083 C 229.851 105.181,230.275 105.559,230.584 106.000 C 230.874 106.412,231.292 106.837,231.513 106.944 C 231.735 107.050,232.104 107.223,232.333 107.327 C 232.899 107.584,233.800 108.138,234.735 108.804 C 235.959 109.676,241.711 110.833,244.821 110.833 C 248.455 110.833,254.251 109.484,255.436 108.362 C 255.828 107.992,257.378 107.167,257.683 107.167 C 257.790 107.167,258.336 106.692,258.897 106.112 C 259.458 105.532,260.104 104.941,260.333 104.799 C 260.563 104.657,260.938 104.225,261.167 103.840 C 261.396 103.454,261.793 102.901,262.050 102.611 C 264.510 99.829,265.634 95.434,264.342 93.651 C 263.955 93.117,264.315 92.104,265.817 89.500 C 266.762 87.862,266.436 81.806,265.261 79.180 C 264.951 78.485,264.471 77.157,264.196 76.229 C 263.598 74.209,263.322 73.640,262.761 73.272 C 262.528 73.120,262.193 72.711,262.016 72.365 C 261.482 71.318,259.538 69.034,258.940 68.750 C 258.633 68.604,258.292 68.320,258.181 68.117 C 257.938 67.671,256.739 66.868,255.500 66.323 C 254.996 66.102,254.158 65.650,253.639 65.319 C 251.525 63.974,244.594 63.215,240.833 63.917 M309.917 63.765 C 306.910 64.182,305.512 64.575,304.190 65.376 C 302.282 66.532,302.072 66.640,301.708 66.653 C 301.484 66.661,300.937 67.063,300.348 67.652 C 299.806 68.194,299.092 68.766,298.761 68.923 C 298.429 69.080,297.954 69.513,297.704 69.884 C 297.454 70.255,296.857 70.932,296.376 71.387 C 295.895 71.842,295.230 72.700,294.899 73.293 C 294.568 73.885,294.157 74.509,293.987 74.679 C 293.335 75.332,292.514 77.288,292.079 79.224 C 291.952 79.788,291.629 80.850,291.361 81.583 C 290.124 84.963,290.272 91.224,291.653 93.986 C 291.818 94.314,292.000 94.941,292.057 95.379 C 292.268 96.991,293.183 99.349,293.858 100.025 C 294.203 100.370,294.648 100.975,294.846 101.368 C 295.044 101.761,295.553 102.431,295.978 102.857 C 296.403 103.282,297.058 103.957,297.434 104.357 C 299.054 106.078,300.136 106.960,301.333 107.536 C 302.021 107.867,302.775 108.322,303.010 108.546 C 303.816 109.317,305.820 109.946,308.725 110.338 C 309.472 110.439,310.490 110.591,310.986 110.677 C 312.133 110.876,314.083 110.878,315.117 110.682 C 315.557 110.598,316.629 110.445,317.500 110.342 C 320.474 109.988,323.338 109.042,323.785 108.265 C 323.901 108.065,325.569 107.167,325.826 107.167 C 326.023 107.167,328.942 104.231,329.332 103.641 C 329.554 103.306,329.944 102.908,330.201 102.756 C 330.457 102.605,330.667 102.412,330.667 102.328 C 330.667 102.035,331.848 99.747,332.342 99.083 C 333.826 97.089,333.820 92.357,332.333 91.423 C 331.144 90.677,327.265 90.572,325.750 91.245 C 324.440 91.827,324.243 91.973,323.717 92.758 C 323.424 93.195,323.110 93.599,323.019 93.655 C 322.836 93.768,322.168 95.251,322.164 95.555 C 322.162 95.662,321.570 96.360,320.848 97.106 C 317.653 100.405,312.477 101.492,308.917 99.613 C 308.550 99.419,307.741 99.006,307.119 98.694 C 306.387 98.328,305.904 97.965,305.748 97.664 C 305.616 97.408,305.263 97.046,304.962 96.859 C 304.180 96.372,303.921 96.010,303.517 94.843 C 303.320 94.275,303.024 93.608,302.860 93.363 C 302.696 93.117,302.399 92.678,302.201 92.386 C 301.103 90.772,301.093 83.520,302.187 82.206 C 302.405 81.944,302.995 80.853,303.498 79.782 C 304.147 78.399,304.496 77.833,304.700 77.833 C 305.075 77.833,306.058 76.966,306.507 76.238 C 306.743 75.856,306.987 75.667,307.243 75.667 C 307.453 75.667,308.028 75.489,308.521 75.273 C 310.902 74.225,314.924 74.252,317.672 75.335 C 318.134 75.518,318.697 75.667,318.923 75.667 C 319.149 75.667,319.333 75.731,319.333 75.811 C 319.333 76.139,320.464 77.393,321.062 77.728 C 321.567 78.010,321.782 78.285,322.061 79.002 C 322.633 80.473,323.632 82.071,324.196 82.417 C 324.345 82.508,324.981 82.930,325.609 83.353 C 329.468 85.956,334.036 83.734,333.494 79.518 C 333.212 77.333,332.836 76.225,332.155 75.572 C 331.886 75.315,331.667 75.013,331.667 74.902 C 331.667 74.791,331.442 74.273,331.167 73.750 C 330.892 73.227,330.667 72.697,330.667 72.572 C 330.667 72.266,329.688 71.167,329.415 71.167 C 329.296 71.167,328.975 70.773,328.703 70.292 C 328.127 69.274,327.760 68.920,327.125 68.769 C 326.838 68.701,326.509 68.410,326.244 67.991 C 325.824 67.326,324.965 66.668,324.515 66.667 C 324.385 66.667,323.606 66.249,322.784 65.737 C 320.954 64.600,320.843 64.557,318.667 64.137 C 316.989 63.813,311.315 63.572,309.917 63.765 M248.332 66.429 C 253.576 67.412,258.737 70.655,260.426 74.030 C 260.671 74.518,261.035 75.142,261.237 75.417 C 262.251 76.802,262.984 78.800,263.804 82.417 C 264.579 85.834,264.323 87.758,262.952 88.811 C 262.125 89.447,263.684 89.393,247.744 89.337 L 235.071 89.293 234.077 89.797 C 232.445 90.624,231.696 92.535,232.431 93.996 C 232.653 94.440,232.884 95.053,232.944 95.360 C 233.206 96.713,235.370 99.301,237.408 100.700 C 243.001 104.540,251.863 102.880,255.824 97.250 C 257.311 95.137,258.967 94.465,261.049 95.130 L 262.333 95.540 262.333 96.832 L 262.333 98.123 261.250 99.744 C 260.654 100.635,260.167 101.409,260.167 101.464 C 260.167 101.701,256.944 104.655,256.407 104.910 C 256.080 105.065,255.774 105.295,255.726 105.420 C 255.629 105.673,252.768 107.167,252.382 107.167 C 252.248 107.167,251.639 107.386,251.028 107.653 C 247.893 109.026,241.677 109.046,238.524 107.693 C 237.850 107.403,237.201 107.167,237.081 107.167 C 235.329 107.167,228.333 101.544,228.333 100.135 C 228.333 99.999,228.047 99.482,227.696 98.985 C 226.969 97.956,226.408 96.643,226.090 95.227 C 225.970 94.690,225.639 93.357,225.356 92.266 C 224.414 88.643,224.468 85.418,225.532 81.767 C 225.802 80.841,226.086 79.737,226.164 79.314 C 226.315 78.496,227.126 76.747,227.739 75.917 C 227.942 75.642,228.324 74.987,228.588 74.461 C 229.622 72.398,233.546 69.054,236.500 67.717 C 237.892 67.086,239.914 66.590,242.833 66.161 C 244.065 65.980,246.597 66.104,248.332 66.429 M315.750 66.264 C 316.575 66.403,317.662 66.585,318.167 66.669 C 319.423 66.878,321.745 67.750,322.624 68.343 C 323.023 68.613,323.389 68.833,323.437 68.833 C 323.613 68.833,326.019 70.715,326.739 71.415 C 328.034 72.673,330.065 75.563,330.397 76.619 C 330.564 77.150,330.773 77.722,330.862 77.892 C 331.014 78.182,331.353 79.872,331.397 80.562 C 331.442 81.264,329.709 81.890,328.092 81.755 L 326.666 81.637 325.446 80.191 C 324.775 79.395,323.978 78.242,323.676 77.628 C 320.799 71.783,310.577 69.870,305.583 74.241 C 305.308 74.482,304.772 74.920,304.391 75.215 C 304.010 75.509,303.462 76.143,303.174 76.623 C 302.887 77.102,302.377 77.852,302.042 78.289 C 299.570 81.514,298.935 89.821,300.823 94.226 C 301.012 94.667,301.167 95.134,301.167 95.264 C 301.167 95.394,301.319 95.653,301.506 95.839 C 301.692 96.026,302.117 96.607,302.450 97.131 C 302.783 97.655,303.118 98.108,303.195 98.139 C 303.271 98.169,303.333 98.285,303.333 98.397 C 303.333 98.998,306.274 101.199,308.099 101.962 L 309.583 102.583 313.083 102.574 C 318.654 102.560,322.461 100.553,323.810 96.919 C 324.068 96.224,325.909 93.933,326.542 93.520 C 328.111 92.497,330.267 93.098,330.983 94.759 L 331.383 95.687 331.025 96.324 C 330.828 96.675,330.667 97.122,330.667 97.318 C 330.667 97.844,329.361 100.347,328.896 100.713 C 328.674 100.887,328.387 101.235,328.257 101.486 C 327.391 103.160,322.619 106.749,320.684 107.181 C 320.262 107.275,319.752 107.459,319.550 107.591 C 318.428 108.323,316.715 108.581,313.000 108.581 L 309.417 108.580 307.917 108.031 C 307.092 107.728,305.923 107.307,305.320 107.095 C 304.200 106.700,303.482 106.368,303.333 106.175 C 303.287 106.116,302.895 105.862,302.461 105.612 C 302.027 105.361,301.465 104.962,301.211 104.726 C 300.957 104.490,300.439 104.081,300.059 103.819 C 299.679 103.556,298.980 102.853,298.505 102.257 C 298.031 101.660,297.423 101.016,297.154 100.825 C 296.886 100.634,296.667 100.397,296.667 100.299 C 296.667 100.200,296.157 99.174,295.534 98.018 C 292.918 93.166,292.151 83.598,294.081 79.896 C 294.219 79.632,294.332 79.258,294.332 79.065 C 294.333 78.871,294.532 78.421,294.775 78.065 C 295.018 77.708,295.382 77.063,295.583 76.632 C 295.783 76.200,296.037 75.739,296.147 75.607 C 296.256 75.476,296.474 75.106,296.631 74.785 C 297.383 73.251,301.078 69.649,302.582 68.983 C 302.995 68.801,303.333 68.593,303.333 68.523 C 303.333 68.209,306.664 66.931,308.211 66.652 C 308.782 66.549,309.775 66.368,310.417 66.250 C 312.011 65.957,313.958 65.963,315.750 66.264 M241.917 72.093 C 239.087 72.711,236.410 74.440,234.386 76.958 C 234.036 77.394,233.657 77.848,233.543 77.968 C 233.430 78.089,233.213 78.614,233.063 79.135 C 232.912 79.657,232.693 80.223,232.575 80.393 C 232.399 80.646,232.402 80.820,232.591 81.354 C 233.081 82.743,233.379 83.179,234.147 83.630 L 234.917 84.081 243.224 84.143 C 255.258 84.232,255.615 84.159,256.766 81.404 C 257.113 80.574,256.034 77.885,254.840 76.604 C 254.424 76.158,253.831 75.520,253.522 75.188 C 251.169 72.656,245.843 71.236,241.917 72.093 M248.500 75.101 C 249.279 75.339,250.082 75.572,250.284 75.618 C 250.487 75.665,250.781 75.901,250.938 76.143 C 251.095 76.385,251.379 76.694,251.570 76.829 C 252.521 77.501,253.333 78.401,253.333 78.780 C 253.333 79.281,253.687 79.983,254.152 80.404 L 254.505 80.723 253.418 81.202 L 252.330 81.681 244.207 81.631 C 234.939 81.573,233.821 81.415,234.867 80.312 C 235.230 79.928,236.000 78.742,236.000 78.566 C 236.000 78.245,238.813 75.781,239.444 75.548 C 242.552 74.405,245.715 74.248,248.500 75.101 M254.522 92.301 C 254.856 92.413,255.326 92.661,255.568 92.851 L 256.008 93.197 255.362 93.825 C 255.007 94.170,254.481 94.794,254.193 95.212 C 253.906 95.629,253.611 95.996,253.538 96.027 C 253.465 96.058,253.047 96.552,252.610 97.125 C 252.172 97.698,251.747 98.167,251.664 98.167 C 251.582 98.167,251.153 98.380,250.711 98.641 C 247.807 100.353,243.281 101.161,242.098 100.179 C 241.998 100.096,241.504 99.866,241.000 99.668 C 238.738 98.781,237.472 98.021,236.992 97.263 C 236.735 96.860,236.302 96.364,236.029 96.162 C 235.552 95.809,235.118 95.092,234.611 93.818 C 234.270 92.961,234.620 92.417,235.656 92.195 C 236.814 91.947,253.754 92.042,254.522 92.301 " stroke="none" fill="#9a9a9a" fill-rule="evenodd"></path></g></svg>