<?xml version="1.0" standalone="no"?>
<!DOCTYPE svg PUBLIC "-//W3C//DTD SVG 20010904//EN"
 "http://www.w3.org/TR/2001/REC-SVG-20010904/DTD/svg10.dtd">
<svg version="1.0" xmlns="http://www.w3.org/2000/svg"
 width="100.000000pt" height="40.000000pt" viewBox="0 0 100.000000 40.000000"
 preserveAspectRatio="xMidYMid meet">

<g transform="translate(0.000000,40.000000) scale(0.100000,-0.100000)"
fill="#000000" stroke="none">
<path d="M343 369 c-6 -6 -22 -17 -35 -23 -26 -13 -37 -46 -15 -42 8 1 21 7
29 14 8 6 18 9 21 5 10 -9 9 -35 -1 -29 -7 4 -42 -27 -42 -38 0 -11 42 9 64
29 22 20 27 21 38 8 10 -12 9 -17 -4 -27 -10 -8 -15 -20 -12 -32 4 -17 -2 -23
-35 -34 -28 -9 -41 -19 -41 -32 0 -22 -9 -23 -38 -2 -28 19 -40 11 -21 -13 13
-16 12 -17 -3 -5 -35 28 -109 10 -150 -34 -9 -11 -19 -40 -23 -67 l-7 -47 186
0 c102 0 186 4 186 8 0 29 -36 105 -55 118 l-23 15 29 32 c21 22 25 33 16 39
-9 6 -9 8 1 8 7 0 12 13 12 31 0 18 7 37 16 44 15 11 15 14 -1 38 -10 15 -23
27 -29 26 -27 -3 -47 2 -41 11 8 14 -8 13 -22 -1z"/>
<path d="M635 370 c4 -6 -6 -10 -24 -10 -22 0 -35 -7 -48 -26 -16 -25 -16 -27
1 -40 10 -7 16 -19 13 -27 -3 -8 -1 -20 4 -28 7 -12 11 -11 25 3 16 16 16 18
1 24 -9 3 -17 12 -17 19 0 23 22 22 47 -1 30 -27 60 -36 60 -17 0 8 -6 12 -13
9 -8 -3 -11 0 -7 10 3 8 -1 14 -10 14 -8 0 -17 7 -21 15 -7 19 4 19 40 0 15
-8 30 -13 32 -10 9 9 -20 43 -43 49 -14 4 -25 11 -25 16 0 6 -5 10 -11 10 -5
0 -7 -4 -4 -10z"/>
<path d="M710 259 c0 -11 4 -18 10 -14 5 3 7 12 3 20 -7 21 -13 19 -13 -6z"/>
<path d="M272 250 c0 -14 2 -19 5 -12 2 6 2 18 0 25 -3 6 -5 1 -5 -13z"/>
<path d="M590 215 c-10 -12 -10 -15 4 -15 10 0 15 -4 12 -9 -3 -4 1 -16 8 -27
12 -16 12 -20 -4 -31 -17 -12 -50 -91 -50 -120 0 -10 38 -13 184 -13 l185 0
-5 22 c-18 87 -21 93 -62 122 -39 28 -45 29 -83 19 -29 -8 -38 -8 -30 0 21 21
11 27 -19 12 -33 -17 -52 -13 -43 10 3 10 -2 15 -16 15 -12 0 -32 7 -45 15
-21 14 -24 14 -36 0z"/>
</g>
</svg>
